<mxfile host="Electron" agent="Mozilla/5.0 (Windows NT 10.0; Win64; x64) AppleWebKit/537.36 (KHTML, like Gecko) draw.io/26.2.15 Chrome/134.0.6998.205 Electron/35.2.1 Safari/537.36" version="26.2.15">
  <diagram id="R2lEEEUBdFMjLlhIrx00" name="Page-1">
    <mxGraphModel dx="2323" dy="1646" grid="1" gridSize="10" guides="1" tooltips="1" connect="1" arrows="1" fold="1" page="1" pageScale="1" pageWidth="850" pageHeight="1100" math="0" shadow="0" extFonts="Permanent Marker^https://fonts.googleapis.com/css?family=Permanent+Marker">
      <root>
        <mxCell id="0" />
        <mxCell id="1" parent="0" />
        <mxCell id="BiTTlBMMz1A8QfUqZxCa-40" value="" style="endArrow=none;html=1;rounded=0;" parent="1" source="BiTTlBMMz1A8QfUqZxCa-91" target="th9OgHV7kQ32fKlyRIKF-10" edge="1">
          <mxGeometry relative="1" as="geometry">
            <mxPoint x="100" y="200.00000000000023" as="sourcePoint" />
            <mxPoint x="-100" y="250" as="targetPoint" />
          </mxGeometry>
        </mxCell>
        <mxCell id="BiTTlBMMz1A8QfUqZxCa-41" value="1" style="resizable=0;html=1;whiteSpace=wrap;align=right;verticalAlign=bottom;" parent="BiTTlBMMz1A8QfUqZxCa-40" connectable="0" vertex="1">
          <mxGeometry x="1" relative="1" as="geometry">
            <mxPoint x="-14" y="5" as="offset" />
          </mxGeometry>
        </mxCell>
        <mxCell id="th9OgHV7kQ32fKlyRIKF-11" value="" style="shape=link;html=1;rounded=0;" parent="BiTTlBMMz1A8QfUqZxCa-40" target="th9OgHV7kQ32fKlyRIKF-27" edge="1">
          <mxGeometry relative="1" as="geometry">
            <mxPoint x="-265" y="388.3400000000001" as="sourcePoint" />
            <mxPoint x="-265" y="304.17" as="targetPoint" />
          </mxGeometry>
        </mxCell>
        <mxCell id="th9OgHV7kQ32fKlyRIKF-12" value="N" style="resizable=0;html=1;whiteSpace=wrap;align=right;verticalAlign=bottom;" parent="th9OgHV7kQ32fKlyRIKF-11" connectable="0" vertex="1">
          <mxGeometry x="1" relative="1" as="geometry">
            <mxPoint x="-10" y="20" as="offset" />
          </mxGeometry>
        </mxCell>
        <mxCell id="BiTTlBMMz1A8QfUqZxCa-42" value="" style="shape=link;html=1;rounded=0;" parent="1" target="th9OgHV7kQ32fKlyRIKF-10" edge="1">
          <mxGeometry relative="1" as="geometry">
            <mxPoint x="60" y="384.1700000000001" as="sourcePoint" />
            <mxPoint x="60" y="300" as="targetPoint" />
          </mxGeometry>
        </mxCell>
        <mxCell id="BiTTlBMMz1A8QfUqZxCa-43" value="N" style="resizable=0;html=1;whiteSpace=wrap;align=right;verticalAlign=bottom;" parent="BiTTlBMMz1A8QfUqZxCa-42" connectable="0" vertex="1">
          <mxGeometry x="1" relative="1" as="geometry">
            <mxPoint x="-6" y="21" as="offset" />
          </mxGeometry>
        </mxCell>
        <mxCell id="BiTTlBMMz1A8QfUqZxCa-47" value="기록일" style="ellipse;whiteSpace=wrap;html=1;" parent="1" vertex="1">
          <mxGeometry x="-30" y="350" width="70" height="30" as="geometry" />
        </mxCell>
        <mxCell id="BiTTlBMMz1A8QfUqZxCa-48" value="" style="endArrow=none;html=1;rounded=0;" parent="1" source="th9OgHV7kQ32fKlyRIKF-4" target="BiTTlBMMz1A8QfUqZxCa-47" edge="1">
          <mxGeometry relative="1" as="geometry">
            <mxPoint x="26.443816337960698" y="384.1700000000001" as="sourcePoint" />
            <mxPoint x="220" y="370.17" as="targetPoint" />
          </mxGeometry>
        </mxCell>
        <mxCell id="BiTTlBMMz1A8QfUqZxCa-49" value="작성하다" style="shape=rhombus;perimeter=rhombusPerimeter;whiteSpace=wrap;html=1;align=center;" parent="1" vertex="1">
          <mxGeometry x="170" y="80" width="120" height="60" as="geometry" />
        </mxCell>
        <mxCell id="BiTTlBMMz1A8QfUqZxCa-74" value="참조하다" style="shape=rhombus;perimeter=rhombusPerimeter;whiteSpace=wrap;html=1;align=center;" parent="1" vertex="1">
          <mxGeometry x="280.00000000000006" y="570" width="120" height="60" as="geometry" />
        </mxCell>
        <mxCell id="BiTTlBMMz1A8QfUqZxCa-83" value="" style="endArrow=none;html=1;rounded=0;" parent="1" source="th9OgHV7kQ32fKlyRIKF-4" target="BiTTlBMMz1A8QfUqZxCa-74" edge="1">
          <mxGeometry relative="1" as="geometry">
            <mxPoint x="-100" y="454.1700000000001" as="sourcePoint" />
            <mxPoint x="480" y="430" as="targetPoint" />
            <Array as="points">
              <mxPoint x="60" y="600" />
            </Array>
          </mxGeometry>
        </mxCell>
        <mxCell id="BiTTlBMMz1A8QfUqZxCa-84" value="1" style="resizable=0;html=1;whiteSpace=wrap;align=right;verticalAlign=bottom;" parent="BiTTlBMMz1A8QfUqZxCa-83" connectable="0" vertex="1">
          <mxGeometry x="1" relative="1" as="geometry">
            <mxPoint as="offset" />
          </mxGeometry>
        </mxCell>
        <mxCell id="BiTTlBMMz1A8QfUqZxCa-109" value="작성날자" style="ellipse;whiteSpace=wrap;html=1;" parent="1" vertex="1">
          <mxGeometry x="623.75" y="-170" width="70" height="30" as="geometry" />
        </mxCell>
        <mxCell id="BiTTlBMMz1A8QfUqZxCa-110" value="내용" style="ellipse;whiteSpace=wrap;html=1;" parent="1" vertex="1">
          <mxGeometry x="605" y="-210" width="70" height="30" as="geometry" />
        </mxCell>
        <mxCell id="BiTTlBMMz1A8QfUqZxCa-113" value="&lt;u&gt;댓글ID&lt;/u&gt;" style="ellipse;whiteSpace=wrap;html=1;" parent="1" vertex="1">
          <mxGeometry x="460" y="-220" width="70" height="30" as="geometry" />
        </mxCell>
        <mxCell id="BiTTlBMMz1A8QfUqZxCa-114" value="&lt;u&gt;글ID&lt;/u&gt;" style="ellipse;whiteSpace=wrap;html=1;" parent="1" vertex="1">
          <mxGeometry x="535" y="-220" width="70" height="30" as="geometry" />
        </mxCell>
        <mxCell id="BiTTlBMMz1A8QfUqZxCa-115" value="댓글" style="shape=ext;margin=3;double=1;whiteSpace=wrap;html=1;align=center;" parent="1" vertex="1">
          <mxGeometry x="490.49" y="-180" width="130" height="70" as="geometry" />
        </mxCell>
        <mxCell id="BiTTlBMMz1A8QfUqZxCa-121" value="" style="endArrow=none;html=1;rounded=0;" parent="1" source="BiTTlBMMz1A8QfUqZxCa-113" target="BiTTlBMMz1A8QfUqZxCa-115" edge="1">
          <mxGeometry relative="1" as="geometry">
            <mxPoint x="427.5" y="159.47" as="sourcePoint" />
            <mxPoint x="587.5" y="159.47" as="targetPoint" />
          </mxGeometry>
        </mxCell>
        <mxCell id="BiTTlBMMz1A8QfUqZxCa-122" value="" style="endArrow=none;html=1;rounded=0;" parent="1" source="BiTTlBMMz1A8QfUqZxCa-114" target="BiTTlBMMz1A8QfUqZxCa-115" edge="1">
          <mxGeometry relative="1" as="geometry">
            <mxPoint x="427.5" y="159.47" as="sourcePoint" />
            <mxPoint x="587.5" y="159.47" as="targetPoint" />
          </mxGeometry>
        </mxCell>
        <mxCell id="BiTTlBMMz1A8QfUqZxCa-125" value="" style="endArrow=none;html=1;rounded=0;exitX=0;exitY=1;exitDx=0;exitDy=0;" parent="1" source="BiTTlBMMz1A8QfUqZxCa-110" target="BiTTlBMMz1A8QfUqZxCa-115" edge="1">
          <mxGeometry relative="1" as="geometry">
            <mxPoint x="427.5" y="159.47" as="sourcePoint" />
            <mxPoint x="587.5" y="159.47" as="targetPoint" />
          </mxGeometry>
        </mxCell>
        <mxCell id="BiTTlBMMz1A8QfUqZxCa-126" value="" style="endArrow=none;html=1;rounded=0;" parent="1" source="BiTTlBMMz1A8QfUqZxCa-115" target="BiTTlBMMz1A8QfUqZxCa-109" edge="1">
          <mxGeometry relative="1" as="geometry">
            <mxPoint x="427.5" y="159.47" as="sourcePoint" />
            <mxPoint x="587.5" y="159.47" as="targetPoint" />
          </mxGeometry>
        </mxCell>
        <mxCell id="BiTTlBMMz1A8QfUqZxCa-128" value="등록되다" style="shape=rhombus;double=1;perimeter=rhombusPerimeter;whiteSpace=wrap;html=1;align=center;" parent="1" vertex="1">
          <mxGeometry x="495.49" y="-43" width="120" height="60" as="geometry" />
        </mxCell>
        <mxCell id="BiTTlBMMz1A8QfUqZxCa-129" value="작성하다" style="shape=rhombus;perimeter=rhombusPerimeter;whiteSpace=wrap;html=1;align=center;" parent="1" vertex="1">
          <mxGeometry x="170.00000000000006" y="-55" width="120" height="60" as="geometry" />
        </mxCell>
        <mxCell id="BiTTlBMMz1A8QfUqZxCa-95" value="닉네임" style="ellipse;whiteSpace=wrap;html=1;" parent="1" vertex="1">
          <mxGeometry x="-190" y="-60" width="70" height="30" as="geometry" />
        </mxCell>
        <mxCell id="BiTTlBMMz1A8QfUqZxCa-96" value="전화번호" style="ellipse;whiteSpace=wrap;html=1;" parent="1" vertex="1">
          <mxGeometry x="-170" y="180" width="70" height="30" as="geometry" />
        </mxCell>
        <mxCell id="BiTTlBMMz1A8QfUqZxCa-97" value="이메일" style="ellipse;whiteSpace=wrap;html=1;" parent="1" vertex="1">
          <mxGeometry x="-70" y="-60" width="70" height="30" as="geometry" />
        </mxCell>
        <mxCell id="BiTTlBMMz1A8QfUqZxCa-98" value="성별" style="ellipse;whiteSpace=wrap;html=1;" parent="1" vertex="1">
          <mxGeometry x="-20" y="-30" width="70" height="30" as="geometry" />
        </mxCell>
        <mxCell id="BiTTlBMMz1A8QfUqZxCa-104" value="" style="endArrow=none;html=1;rounded=0;" parent="1" source="BiTTlBMMz1A8QfUqZxCa-91" target="BiTTlBMMz1A8QfUqZxCa-96" edge="1">
          <mxGeometry width="50" height="50" relative="1" as="geometry">
            <mxPoint x="-2.2737367544323206e-13" y="-110" as="sourcePoint" />
            <mxPoint x="110" y="-210" as="targetPoint" />
          </mxGeometry>
        </mxCell>
        <mxCell id="BiTTlBMMz1A8QfUqZxCa-103" value="" style="endArrow=none;html=1;rounded=0;" parent="1" source="BiTTlBMMz1A8QfUqZxCa-91" target="BiTTlBMMz1A8QfUqZxCa-97" edge="1">
          <mxGeometry width="50" height="50" relative="1" as="geometry">
            <mxPoint y="-110" as="sourcePoint" />
            <mxPoint x="140" y="-190" as="targetPoint" />
          </mxGeometry>
        </mxCell>
        <mxCell id="BiTTlBMMz1A8QfUqZxCa-105" value="" style="endArrow=none;html=1;rounded=0;" parent="1" source="BiTTlBMMz1A8QfUqZxCa-91" target="BiTTlBMMz1A8QfUqZxCa-98" edge="1">
          <mxGeometry width="50" height="50" relative="1" as="geometry">
            <mxPoint x="-2.2737367544323206e-13" y="-110" as="sourcePoint" />
            <mxPoint x="140" y="-190" as="targetPoint" />
          </mxGeometry>
        </mxCell>
        <mxCell id="BiTTlBMMz1A8QfUqZxCa-56" value="본문" style="ellipse;whiteSpace=wrap;html=1;container=0;" parent="1" vertex="1">
          <mxGeometry x="644.13" y="60" width="70" height="30" as="geometry" />
        </mxCell>
        <mxCell id="BiTTlBMMz1A8QfUqZxCa-65" value="" style="endArrow=none;html=1;rounded=0;" parent="1" source="BiTTlBMMz1A8QfUqZxCa-56" target="BiTTlBMMz1A8QfUqZxCa-44" edge="1">
          <mxGeometry relative="1" as="geometry">
            <mxPoint x="502.23" y="295" as="sourcePoint" />
            <mxPoint x="623.9700000000003" y="79.65866257154812" as="targetPoint" />
          </mxGeometry>
        </mxCell>
        <mxCell id="BiTTlBMMz1A8QfUqZxCa-44" value="경로 게시판" style="rounded=0;whiteSpace=wrap;html=1;container=0;" parent="1" vertex="1">
          <mxGeometry x="495.49" y="80" width="120" height="60" as="geometry" />
        </mxCell>
        <mxCell id="BiTTlBMMz1A8QfUqZxCa-54" value="&lt;u&gt;글ID&lt;/u&gt;" style="ellipse;whiteSpace=wrap;html=1;container=0;" parent="1" vertex="1">
          <mxGeometry x="644.13" y="132.5" width="70" height="30" as="geometry" />
        </mxCell>
        <mxCell id="BiTTlBMMz1A8QfUqZxCa-55" value="제목" style="ellipse;whiteSpace=wrap;html=1;container=0;" parent="1" vertex="1">
          <mxGeometry x="642.06" y="95" width="70" height="30" as="geometry" />
        </mxCell>
        <mxCell id="BiTTlBMMz1A8QfUqZxCa-57" value="작성날자" style="ellipse;whiteSpace=wrap;html=1;container=0;" parent="1" vertex="1">
          <mxGeometry x="644.13" y="20" width="70" height="30" as="geometry" />
        </mxCell>
        <mxCell id="BiTTlBMMz1A8QfUqZxCa-63" value="" style="endArrow=none;html=1;rounded=0;" parent="1" source="BiTTlBMMz1A8QfUqZxCa-54" target="BiTTlBMMz1A8QfUqZxCa-44" edge="1">
          <mxGeometry relative="1" as="geometry">
            <mxPoint x="255.26999999999998" y="390" as="sourcePoint" />
            <mxPoint x="465.27" y="320.0000000000002" as="targetPoint" />
          </mxGeometry>
        </mxCell>
        <mxCell id="BiTTlBMMz1A8QfUqZxCa-66" value="" style="endArrow=none;html=1;rounded=0;" parent="1" source="BiTTlBMMz1A8QfUqZxCa-57" target="BiTTlBMMz1A8QfUqZxCa-44" edge="1">
          <mxGeometry relative="1" as="geometry">
            <mxPoint x="493.75" y="330" as="sourcePoint" />
            <mxPoint x="703.75" y="260.0000000000002" as="targetPoint" />
          </mxGeometry>
        </mxCell>
        <mxCell id="BiTTlBMMz1A8QfUqZxCa-67" value="" style="endArrow=none;html=1;rounded=0;" parent="1" source="BiTTlBMMz1A8QfUqZxCa-55" target="BiTTlBMMz1A8QfUqZxCa-44" edge="1">
          <mxGeometry relative="1" as="geometry">
            <mxPoint x="502.23" y="295" as="sourcePoint" />
            <mxPoint x="623.9700000000003" y="92.56339581036377" as="targetPoint" />
          </mxGeometry>
        </mxCell>
        <mxCell id="BiTTlBMMz1A8QfUqZxCa-139" value="" style="shape=link;html=1;rounded=0;" parent="1" source="BiTTlBMMz1A8QfUqZxCa-115" target="BiTTlBMMz1A8QfUqZxCa-128" edge="1">
          <mxGeometry relative="1" as="geometry">
            <mxPoint x="508.13" y="-10.530000000000001" as="sourcePoint" />
            <mxPoint x="668.13" y="-10.530000000000001" as="targetPoint" />
          </mxGeometry>
        </mxCell>
        <mxCell id="BiTTlBMMz1A8QfUqZxCa-140" value="1" style="resizable=0;html=1;whiteSpace=wrap;align=right;verticalAlign=bottom;direction=south;" parent="BiTTlBMMz1A8QfUqZxCa-139" connectable="0" vertex="1">
          <mxGeometry x="1" relative="1" as="geometry">
            <mxPoint x="-5" as="offset" />
          </mxGeometry>
        </mxCell>
        <mxCell id="BiTTlBMMz1A8QfUqZxCa-141" value="" style="endArrow=none;html=1;rounded=0;" parent="1" source="BiTTlBMMz1A8QfUqZxCa-44" target="BiTTlBMMz1A8QfUqZxCa-128" edge="1">
          <mxGeometry relative="1" as="geometry">
            <mxPoint x="545.27" y="190" as="sourcePoint" />
            <mxPoint x="235.26999999999998" y="40" as="targetPoint" />
          </mxGeometry>
        </mxCell>
        <mxCell id="BiTTlBMMz1A8QfUqZxCa-142" value="N" style="resizable=0;html=1;whiteSpace=wrap;align=right;verticalAlign=bottom;" parent="BiTTlBMMz1A8QfUqZxCa-141" connectable="0" vertex="1">
          <mxGeometry x="1" relative="1" as="geometry">
            <mxPoint x="-4" y="20" as="offset" />
          </mxGeometry>
        </mxCell>
        <mxCell id="BiTTlBMMz1A8QfUqZxCa-91" value="사용자" style="rounded=0;whiteSpace=wrap;html=1;" parent="1" vertex="1">
          <mxGeometry x="-160" y="80" width="120" height="60" as="geometry" />
        </mxCell>
        <mxCell id="BiTTlBMMz1A8QfUqZxCa-92" value="ID" style="ellipse;whiteSpace=wrap;html=1;" parent="1" vertex="1">
          <mxGeometry x="-253" y="3" width="70" height="30" as="geometry" />
        </mxCell>
        <mxCell id="BiTTlBMMz1A8QfUqZxCa-94" value="&lt;u&gt;사용자ID&lt;/u&gt;" style="ellipse;whiteSpace=wrap;html=1;" parent="1" vertex="1">
          <mxGeometry x="-269" y="36" width="70" height="30" as="geometry" />
        </mxCell>
        <mxCell id="BiTTlBMMz1A8QfUqZxCa-99" value="" style="endArrow=none;html=1;rounded=0;" parent="1" source="BiTTlBMMz1A8QfUqZxCa-91" target="BiTTlBMMz1A8QfUqZxCa-92" edge="1">
          <mxGeometry width="50" height="50" relative="1" as="geometry">
            <mxPoint x="-70" y="110" as="sourcePoint" />
            <mxPoint x="-20" y="60" as="targetPoint" />
          </mxGeometry>
        </mxCell>
        <mxCell id="BiTTlBMMz1A8QfUqZxCa-100" value="" style="endArrow=none;html=1;rounded=0;" parent="1" source="BiTTlBMMz1A8QfUqZxCa-91" target="BiTTlBMMz1A8QfUqZxCa-94" edge="1">
          <mxGeometry width="50" height="50" relative="1" as="geometry">
            <mxPoint x="-70" y="110" as="sourcePoint" />
            <mxPoint x="-20" y="60" as="targetPoint" />
          </mxGeometry>
        </mxCell>
        <mxCell id="BiTTlBMMz1A8QfUqZxCa-101" value="" style="endArrow=none;html=1;rounded=0;" parent="1" source="BiTTlBMMz1A8QfUqZxCa-91" target="BiTTlBMMz1A8QfUqZxCa-93" edge="1">
          <mxGeometry width="50" height="50" relative="1" as="geometry">
            <mxPoint x="-100" y="80" as="sourcePoint" />
            <mxPoint x="-20" y="60" as="targetPoint" />
          </mxGeometry>
        </mxCell>
        <mxCell id="BiTTlBMMz1A8QfUqZxCa-102" value="" style="endArrow=none;html=1;rounded=0;" parent="1" source="BiTTlBMMz1A8QfUqZxCa-91" target="BiTTlBMMz1A8QfUqZxCa-95" edge="1">
          <mxGeometry width="50" height="50" relative="1" as="geometry">
            <mxPoint x="-100" y="80" as="sourcePoint" />
            <mxPoint x="-20" y="60" as="targetPoint" />
          </mxGeometry>
        </mxCell>
        <mxCell id="BiTTlBMMz1A8QfUqZxCa-106" value="생성일" style="ellipse;whiteSpace=wrap;html=1;" parent="1" vertex="1">
          <mxGeometry x="-260" y="70" width="70" height="30" as="geometry" />
        </mxCell>
        <mxCell id="BiTTlBMMz1A8QfUqZxCa-107" value="" style="endArrow=none;html=1;rounded=0;" parent="1" source="BiTTlBMMz1A8QfUqZxCa-91" target="BiTTlBMMz1A8QfUqZxCa-106" edge="1">
          <mxGeometry relative="1" as="geometry">
            <mxPoint x="-100" y="150" as="sourcePoint" />
            <mxPoint x="60" y="150" as="targetPoint" />
          </mxGeometry>
        </mxCell>
        <mxCell id="9UmY1VL2F1LapKhUl30l-1" value="실시간 위험 수집" style="rounded=0;whiteSpace=wrap;html=1;container=0;" parent="1" vertex="1">
          <mxGeometry x="-1160" y="244.99999999999994" width="120" height="60" as="geometry" />
        </mxCell>
        <mxCell id="9UmY1VL2F1LapKhUl30l-4" value="위치" style="ellipse;whiteSpace=wrap;html=1;container=0;" parent="1" vertex="1">
          <mxGeometry x="-1220" y="209.99999999999994" width="70" height="30" as="geometry" />
        </mxCell>
        <mxCell id="9UmY1VL2F1LapKhUl30l-5" value="발생시간" style="ellipse;whiteSpace=wrap;html=1;container=0;" parent="1" vertex="1">
          <mxGeometry x="-1135" y="199.99999999999994" width="70" height="30" as="geometry" />
        </mxCell>
        <mxCell id="9UmY1VL2F1LapKhUl30l-6" value="&lt;u&gt;수집ID&lt;/u&gt;" style="ellipse;whiteSpace=wrap;html=1;container=0;" parent="1" vertex="1">
          <mxGeometry x="-1240" y="259.16999999999996" width="70" height="30" as="geometry" />
        </mxCell>
        <mxCell id="9UmY1VL2F1LapKhUl30l-8" value="" style="endArrow=none;html=1;rounded=0;" parent="1" source="9UmY1VL2F1LapKhUl30l-6" target="9UmY1VL2F1LapKhUl30l-1" edge="1">
          <mxGeometry relative="1" as="geometry">
            <mxPoint x="-1340" y="209.99999999999994" as="sourcePoint" />
            <mxPoint x="-1180" y="209.99999999999994" as="targetPoint" />
          </mxGeometry>
        </mxCell>
        <mxCell id="9UmY1VL2F1LapKhUl30l-10" value="" style="endArrow=none;html=1;rounded=0;" parent="1" source="9UmY1VL2F1LapKhUl30l-4" target="9UmY1VL2F1LapKhUl30l-1" edge="1">
          <mxGeometry relative="1" as="geometry">
            <mxPoint x="-1340" y="209.99999999999994" as="sourcePoint" />
            <mxPoint x="-1180" y="209.99999999999994" as="targetPoint" />
          </mxGeometry>
        </mxCell>
        <mxCell id="9UmY1VL2F1LapKhUl30l-11" value="" style="endArrow=none;html=1;rounded=0;" parent="1" source="9UmY1VL2F1LapKhUl30l-5" target="9UmY1VL2F1LapKhUl30l-1" edge="1">
          <mxGeometry relative="1" as="geometry">
            <mxPoint x="-1340" y="209.99999999999994" as="sourcePoint" />
            <mxPoint x="-1180" y="209.99999999999994" as="targetPoint" />
          </mxGeometry>
        </mxCell>
        <mxCell id="9UmY1VL2F1LapKhUl30l-13" value="신고내역" style="rounded=0;whiteSpace=wrap;html=1;container=0;" parent="1" vertex="1">
          <mxGeometry x="495.49" y="325" width="120" height="60" as="geometry" />
        </mxCell>
        <mxCell id="9UmY1VL2F1LapKhUl30l-14" value="신고 유형" style="ellipse;whiteSpace=wrap;html=1;container=0;" parent="1" vertex="1">
          <mxGeometry x="425.49" y="395" width="70" height="30" as="geometry" />
        </mxCell>
        <mxCell id="9UmY1VL2F1LapKhUl30l-16" value="내용" style="ellipse;whiteSpace=wrap;html=1;container=0;" parent="1" vertex="1">
          <mxGeometry x="615.49" y="280" width="70" height="30" as="geometry" />
        </mxCell>
        <mxCell id="9UmY1VL2F1LapKhUl30l-17" value="신고날자" style="ellipse;whiteSpace=wrap;html=1;container=0;" parent="1" vertex="1">
          <mxGeometry x="630" y="320" width="70" height="30" as="geometry" />
        </mxCell>
        <mxCell id="9UmY1VL2F1LapKhUl30l-21" value="&lt;u&gt;신고ID&lt;/u&gt;" style="ellipse;whiteSpace=wrap;html=1;container=0;" parent="1" vertex="1">
          <mxGeometry x="400" y="350" width="70" height="30" as="geometry" />
        </mxCell>
        <mxCell id="9UmY1VL2F1LapKhUl30l-22" value="" style="endArrow=none;html=1;rounded=0;" parent="1" source="9UmY1VL2F1LapKhUl30l-13" target="9UmY1VL2F1LapKhUl30l-17" edge="1">
          <mxGeometry relative="1" as="geometry">
            <mxPoint x="365.49" y="205.00000000000003" as="sourcePoint" />
            <mxPoint x="525.49" y="205.00000000000003" as="targetPoint" />
          </mxGeometry>
        </mxCell>
        <mxCell id="9UmY1VL2F1LapKhUl30l-24" value="" style="endArrow=none;html=1;rounded=0;" parent="1" source="9UmY1VL2F1LapKhUl30l-13" target="9UmY1VL2F1LapKhUl30l-21" edge="1">
          <mxGeometry relative="1" as="geometry">
            <mxPoint x="316.74" y="275" as="sourcePoint" />
            <mxPoint x="476.74" y="275" as="targetPoint" />
          </mxGeometry>
        </mxCell>
        <mxCell id="9UmY1VL2F1LapKhUl30l-26" value="" style="endArrow=none;html=1;rounded=0;" parent="1" source="9UmY1VL2F1LapKhUl30l-16" target="9UmY1VL2F1LapKhUl30l-13" edge="1">
          <mxGeometry relative="1" as="geometry">
            <mxPoint x="271.74" y="340" as="sourcePoint" />
            <mxPoint x="431.74" y="340" as="targetPoint" />
          </mxGeometry>
        </mxCell>
        <mxCell id="9UmY1VL2F1LapKhUl30l-28" value="" style="endArrow=none;html=1;rounded=0;" parent="1" source="9UmY1VL2F1LapKhUl30l-13" target="9UmY1VL2F1LapKhUl30l-14" edge="1">
          <mxGeometry relative="1" as="geometry">
            <mxPoint x="264.87" y="235.00000000000003" as="sourcePoint" />
            <mxPoint x="424.87" y="235.00000000000003" as="targetPoint" />
          </mxGeometry>
        </mxCell>
        <mxCell id="9UmY1VL2F1LapKhUl30l-30" value="신고하다" style="shape=rhombus;perimeter=rhombusPerimeter;whiteSpace=wrap;html=1;align=center;" parent="1" vertex="1">
          <mxGeometry x="185" y="229.17" width="120" height="60" as="geometry" />
        </mxCell>
        <mxCell id="9UmY1VL2F1LapKhUl30l-37" value="참조하다" style="shape=rhombus;perimeter=rhombusPerimeter;whiteSpace=wrap;html=1;align=center;" parent="1" vertex="1">
          <mxGeometry x="495.49" y="236" width="120" height="60" as="geometry" />
        </mxCell>
        <mxCell id="9UmY1VL2F1LapKhUl30l-38" value="" style="shape=link;html=1;rounded=0;" parent="1" source="9UmY1VL2F1LapKhUl30l-13" target="9UmY1VL2F1LapKhUl30l-37" edge="1">
          <mxGeometry relative="1" as="geometry">
            <mxPoint x="390" y="250" as="sourcePoint" />
            <mxPoint x="520" y="200" as="targetPoint" />
          </mxGeometry>
        </mxCell>
        <mxCell id="9UmY1VL2F1LapKhUl30l-39" value="&amp;nbsp;N" style="resizable=0;html=1;whiteSpace=wrap;align=right;verticalAlign=bottom;" parent="9UmY1VL2F1LapKhUl30l-38" connectable="0" vertex="1">
          <mxGeometry x="1" relative="1" as="geometry">
            <mxPoint x="-5" y="17" as="offset" />
          </mxGeometry>
        </mxCell>
        <mxCell id="9UmY1VL2F1LapKhUl30l-40" value="" style="endArrow=none;html=1;rounded=0;" parent="1" source="BiTTlBMMz1A8QfUqZxCa-44" target="9UmY1VL2F1LapKhUl30l-37" edge="1">
          <mxGeometry relative="1" as="geometry">
            <mxPoint x="-330.76" y="850" as="sourcePoint" />
            <mxPoint x="550" y="200" as="targetPoint" />
          </mxGeometry>
        </mxCell>
        <mxCell id="9UmY1VL2F1LapKhUl30l-41" value="1" style="resizable=0;html=1;whiteSpace=wrap;align=right;verticalAlign=bottom;" parent="9UmY1VL2F1LapKhUl30l-40" connectable="0" vertex="1">
          <mxGeometry x="1" relative="1" as="geometry">
            <mxPoint x="-4" as="offset" />
          </mxGeometry>
        </mxCell>
        <mxCell id="9UmY1VL2F1LapKhUl30l-42" value="개인 메세지" style="rounded=0;whiteSpace=wrap;html=1;" parent="1" vertex="1">
          <mxGeometry x="-800" y="80" width="120" height="60" as="geometry" />
        </mxCell>
        <mxCell id="9UmY1VL2F1LapKhUl30l-44" value="내용" style="ellipse;whiteSpace=wrap;html=1;" parent="1" vertex="1">
          <mxGeometry x="-720" y="20" width="70" height="30" as="geometry" />
        </mxCell>
        <mxCell id="9UmY1VL2F1LapKhUl30l-45" value="보낸날자" style="ellipse;whiteSpace=wrap;html=1;" parent="1" vertex="1">
          <mxGeometry x="-670" y="50" width="70" height="30" as="geometry" />
        </mxCell>
        <mxCell id="9UmY1VL2F1LapKhUl30l-46" value="" style="endArrow=none;html=1;rounded=0;" parent="1" source="9UmY1VL2F1LapKhUl30l-45" target="9UmY1VL2F1LapKhUl30l-42" edge="1">
          <mxGeometry relative="1" as="geometry">
            <mxPoint x="-885" y="22.5" as="sourcePoint" />
            <mxPoint x="-725" y="22.5" as="targetPoint" />
          </mxGeometry>
        </mxCell>
        <mxCell id="9UmY1VL2F1LapKhUl30l-47" value="" style="endArrow=none;html=1;rounded=0;" parent="1" source="9UmY1VL2F1LapKhUl30l-44" target="9UmY1VL2F1LapKhUl30l-42" edge="1">
          <mxGeometry relative="1" as="geometry">
            <mxPoint x="-930.0022863495446" y="132.4976225576075" as="sourcePoint" />
            <mxPoint x="-698.45" y="163.08" as="targetPoint" />
          </mxGeometry>
        </mxCell>
        <mxCell id="9UmY1VL2F1LapKhUl30l-49" value="&lt;u&gt;DM-ID&lt;/u&gt;" style="ellipse;whiteSpace=wrap;html=1;" parent="1" vertex="1">
          <mxGeometry x="-870" y="50" width="70" height="30" as="geometry" />
        </mxCell>
        <mxCell id="9UmY1VL2F1LapKhUl30l-50" value="" style="endArrow=none;html=1;rounded=0;" parent="1" source="9UmY1VL2F1LapKhUl30l-49" target="9UmY1VL2F1LapKhUl30l-42" edge="1">
          <mxGeometry relative="1" as="geometry">
            <mxPoint x="-950" y="62.5" as="sourcePoint" />
            <mxPoint x="-790" y="62.5" as="targetPoint" />
          </mxGeometry>
        </mxCell>
        <mxCell id="9UmY1VL2F1LapKhUl30l-52" value="메세지를 받다" style="shape=rhombus;perimeter=rhombusPerimeter;whiteSpace=wrap;html=1;align=center;" parent="1" vertex="1">
          <mxGeometry x="-510" y="80" width="120" height="60" as="geometry" />
        </mxCell>
        <mxCell id="BiTTlBMMz1A8QfUqZxCa-93" value="비밀번호" style="ellipse;whiteSpace=wrap;html=1;" parent="1" vertex="1">
          <mxGeometry x="-221" y="-28" width="70" height="30" as="geometry" />
        </mxCell>
        <mxCell id="ymXso0ggI-foQuHuiPl7-1" value="역할" style="ellipse;whiteSpace=wrap;html=1;" parent="1" vertex="1">
          <mxGeometry x="10" y="6" width="70" height="30" as="geometry" />
        </mxCell>
        <mxCell id="ymXso0ggI-foQuHuiPl7-2" value="" style="endArrow=none;html=1;rounded=0;" parent="1" source="BiTTlBMMz1A8QfUqZxCa-91" target="ymXso0ggI-foQuHuiPl7-1" edge="1">
          <mxGeometry relative="1" as="geometry">
            <mxPoint x="-230" y="10" as="sourcePoint" />
            <mxPoint x="-70" y="10" as="targetPoint" />
          </mxGeometry>
        </mxCell>
        <mxCell id="ymXso0ggI-foQuHuiPl7-3" value="알람을 받다" style="shape=rhombus;perimeter=rhombusPerimeter;whiteSpace=wrap;html=1;align=center;" parent="1" vertex="1">
          <mxGeometry x="-510" y="170" width="120" height="60" as="geometry" />
        </mxCell>
        <mxCell id="ymXso0ggI-foQuHuiPl7-4" value="관리자ID" style="ellipse;whiteSpace=wrap;html=1;" parent="1" vertex="1">
          <mxGeometry x="-810" y="20" width="70" height="30" as="geometry" />
        </mxCell>
        <mxCell id="ymXso0ggI-foQuHuiPl7-5" value="" style="endArrow=none;html=1;rounded=0;" parent="1" source="ymXso0ggI-foQuHuiPl7-4" target="9UmY1VL2F1LapKhUl30l-42" edge="1">
          <mxGeometry relative="1" as="geometry">
            <mxPoint x="-920" y="117.5" as="sourcePoint" />
            <mxPoint x="-760" y="117.5" as="targetPoint" />
          </mxGeometry>
        </mxCell>
        <mxCell id="ymXso0ggI-foQuHuiPl7-7" value="실시간 위험 알람" style="rounded=0;whiteSpace=wrap;html=1;" parent="1" vertex="1">
          <mxGeometry x="-800" y="244.17000000000002" width="120" height="60" as="geometry" />
        </mxCell>
        <mxCell id="ymXso0ggI-foQuHuiPl7-9" value="내용" style="ellipse;whiteSpace=wrap;html=1;" parent="1" vertex="1">
          <mxGeometry x="-820" y="200" width="70" height="30" as="geometry" />
        </mxCell>
        <mxCell id="ymXso0ggI-foQuHuiPl7-10" value="보낸날자" style="ellipse;whiteSpace=wrap;html=1;" parent="1" vertex="1">
          <mxGeometry x="-737" y="200" width="70" height="30" as="geometry" />
        </mxCell>
        <mxCell id="ymXso0ggI-foQuHuiPl7-18" value="&lt;u&gt;알람ID&lt;/u&gt;" style="ellipse;whiteSpace=wrap;html=1;" parent="1" vertex="1">
          <mxGeometry x="-670" y="265" width="70" height="30" as="geometry" />
        </mxCell>
        <mxCell id="ymXso0ggI-foQuHuiPl7-20" value="" style="endArrow=none;html=1;rounded=0;" parent="1" source="ymXso0ggI-foQuHuiPl7-18" target="ymXso0ggI-foQuHuiPl7-7" edge="1">
          <mxGeometry relative="1" as="geometry">
            <mxPoint x="-910" y="65" as="sourcePoint" />
            <mxPoint x="-750" y="65" as="targetPoint" />
          </mxGeometry>
        </mxCell>
        <mxCell id="ymXso0ggI-foQuHuiPl7-23" value="" style="endArrow=none;html=1;rounded=0;" parent="1" source="ymXso0ggI-foQuHuiPl7-10" target="ymXso0ggI-foQuHuiPl7-7" edge="1">
          <mxGeometry relative="1" as="geometry">
            <mxPoint x="-910" y="65" as="sourcePoint" />
            <mxPoint x="-980" y="265" as="targetPoint" />
          </mxGeometry>
        </mxCell>
        <mxCell id="ymXso0ggI-foQuHuiPl7-24" value="" style="endArrow=none;html=1;rounded=0;" parent="1" source="ymXso0ggI-foQuHuiPl7-9" target="ymXso0ggI-foQuHuiPl7-7" edge="1">
          <mxGeometry relative="1" as="geometry">
            <mxPoint x="-910" y="65" as="sourcePoint" />
            <mxPoint x="-750" y="65" as="targetPoint" />
          </mxGeometry>
        </mxCell>
        <mxCell id="BiTTlBMMz1A8QfUqZxCa-23" value="&lt;u&gt;경로-ID&lt;/u&gt;" style="ellipse;whiteSpace=wrap;html=1;container=0;" parent="1" vertex="1">
          <mxGeometry x="130" y="379.99999999999994" width="70" height="30" as="geometry" />
        </mxCell>
        <mxCell id="BiTTlBMMz1A8QfUqZxCa-26" value="경로 정보" style="ellipse;whiteSpace=wrap;html=1;container=0;" parent="1" vertex="1">
          <mxGeometry x="70" y="349.99999999999994" width="70" height="30" as="geometry" />
        </mxCell>
        <mxCell id="BiTTlBMMz1A8QfUqZxCa-30" value="" style="endArrow=none;html=1;rounded=0;" parent="1" source="BiTTlBMMz1A8QfUqZxCa-23" target="th9OgHV7kQ32fKlyRIKF-4" edge="1">
          <mxGeometry width="50" height="50" relative="1" as="geometry">
            <mxPoint x="90" y="344.17" as="sourcePoint" />
            <mxPoint x="120" y="403.2157142857145" as="targetPoint" />
          </mxGeometry>
        </mxCell>
        <mxCell id="BiTTlBMMz1A8QfUqZxCa-31" value="" style="endArrow=none;html=1;rounded=0;" parent="1" source="BiTTlBMMz1A8QfUqZxCa-26" target="th9OgHV7kQ32fKlyRIKF-4" edge="1">
          <mxGeometry width="50" height="50" relative="1" as="geometry">
            <mxPoint x="90" y="344.17" as="sourcePoint" />
            <mxPoint x="87.45576571079937" y="384.1700000000001" as="targetPoint" />
          </mxGeometry>
        </mxCell>
        <mxCell id="BiTTlBMMz1A8QfUqZxCa-36" value="" style="endArrow=none;html=1;rounded=0;" parent="1" source="vxmtg55Cb_DlXkQCYcBe-1" target="th9OgHV7kQ32fKlyRIKF-4" edge="1">
          <mxGeometry relative="1" as="geometry">
            <mxPoint x="-40" y="414.16999999999996" as="sourcePoint" />
            <mxPoint y="403.2157142857145" as="targetPoint" />
          </mxGeometry>
        </mxCell>
        <mxCell id="ymXso0ggI-foQuHuiPl7-59" value="&lt;font style=&quot;font-size: 26px;&quot;&gt;&amp;nbsp;DODGE TRAVEL ERD 개념도&lt;/font&gt;" style="text;html=1;align=center;verticalAlign=middle;resizable=0;points=[];autosize=1;strokeColor=none;fillColor=none;" parent="1" vertex="1">
          <mxGeometry x="-1310" y="-520" width="370" height="40" as="geometry" />
        </mxCell>
        <mxCell id="vxmtg55Cb_DlXkQCYcBe-1" value="평가결과" style="ellipse;whiteSpace=wrap;html=1;container=0;" parent="1" vertex="1">
          <mxGeometry x="-80" y="379.99999999999994" width="70" height="30" as="geometry" />
        </mxCell>
        <mxCell id="vxmtg55Cb_DlXkQCYcBe-4" value="&lt;font style=&quot;font-size: 26px;&quot;&gt;팀 리프래시 식스센스&lt;/font&gt;" style="text;html=1;align=center;verticalAlign=middle;resizable=0;points=[];autosize=1;strokeColor=none;fillColor=none;" parent="1" vertex="1">
          <mxGeometry x="630" y="1010" width="270" height="40" as="geometry" />
        </mxCell>
        <mxCell id="JzRAc6Fi7FsVI6vPtPe_-1" value="" style="endArrow=none;html=1;rounded=0;" parent="1" target="BiTTlBMMz1A8QfUqZxCa-74" edge="1">
          <mxGeometry relative="1" as="geometry">
            <mxPoint x="580" y="140" as="sourcePoint" />
            <mxPoint x="220" y="440" as="targetPoint" />
            <Array as="points">
              <mxPoint x="580" y="240" />
              <mxPoint x="760" y="240" />
              <mxPoint x="760" y="600" />
            </Array>
          </mxGeometry>
        </mxCell>
        <mxCell id="JzRAc6Fi7FsVI6vPtPe_-2" value="1" style="resizable=0;html=1;whiteSpace=wrap;align=right;verticalAlign=bottom;" parent="JzRAc6Fi7FsVI6vPtPe_-1" connectable="0" vertex="1">
          <mxGeometry x="1" relative="1" as="geometry" />
        </mxCell>
        <mxCell id="JzRAc6Fi7FsVI6vPtPe_-6" value="" style="endArrow=none;html=1;rounded=0;" parent="1" source="BiTTlBMMz1A8QfUqZxCa-44" target="JzRAc6Fi7FsVI6vPtPe_-9" edge="1">
          <mxGeometry relative="1" as="geometry">
            <mxPoint x="630" y="150" as="sourcePoint" />
            <mxPoint x="658.9024203041736" y="172.75871390576185" as="targetPoint" />
          </mxGeometry>
        </mxCell>
        <mxCell id="JzRAc6Fi7FsVI6vPtPe_-7" value="카테고리 세부 사항" style="ellipse;whiteSpace=wrap;html=1;container=0;" parent="1" vertex="1">
          <mxGeometry x="730" y="170" width="80" height="40" as="geometry" />
        </mxCell>
        <mxCell id="JzRAc6Fi7FsVI6vPtPe_-8" value="" style="endArrow=none;html=1;rounded=0;" parent="1" source="JzRAc6Fi7FsVI6vPtPe_-9" target="JzRAc6Fi7FsVI6vPtPe_-7" edge="1">
          <mxGeometry relative="1" as="geometry">
            <mxPoint x="714.1300000000006" y="185" as="sourcePoint" />
            <mxPoint x="800" y="140" as="targetPoint" />
          </mxGeometry>
        </mxCell>
        <mxCell id="JzRAc6Fi7FsVI6vPtPe_-9" value="카테고리 번호" style="ellipse;shape=doubleEllipse;margin=3;whiteSpace=wrap;html=1;align=center;" parent="1" vertex="1">
          <mxGeometry x="646.19" y="170" width="63.81" height="40" as="geometry" />
        </mxCell>
        <mxCell id="JzRAc6Fi7FsVI6vPtPe_-10" value="" style="shape=link;html=1;rounded=0;" parent="1" source="BiTTlBMMz1A8QfUqZxCa-115" target="BiTTlBMMz1A8QfUqZxCa-129" edge="1">
          <mxGeometry relative="1" as="geometry">
            <mxPoint x="40" y="-10" as="sourcePoint" />
            <mxPoint x="200" y="-10" as="targetPoint" />
          </mxGeometry>
        </mxCell>
        <mxCell id="JzRAc6Fi7FsVI6vPtPe_-11" value="N" style="resizable=0;html=1;whiteSpace=wrap;align=right;verticalAlign=bottom;" parent="JzRAc6Fi7FsVI6vPtPe_-10" connectable="0" vertex="1">
          <mxGeometry x="1" relative="1" as="geometry">
            <mxPoint x="10" y="-10" as="offset" />
          </mxGeometry>
        </mxCell>
        <mxCell id="JzRAc6Fi7FsVI6vPtPe_-12" value="" style="shape=link;html=1;rounded=0;" parent="1" source="BiTTlBMMz1A8QfUqZxCa-44" target="BiTTlBMMz1A8QfUqZxCa-49" edge="1">
          <mxGeometry relative="1" as="geometry">
            <mxPoint x="40" y="-10" as="sourcePoint" />
            <mxPoint x="200" y="-10" as="targetPoint" />
          </mxGeometry>
        </mxCell>
        <mxCell id="JzRAc6Fi7FsVI6vPtPe_-13" value="N" style="resizable=0;html=1;whiteSpace=wrap;align=right;verticalAlign=bottom;" parent="JzRAc6Fi7FsVI6vPtPe_-12" connectable="0" vertex="1">
          <mxGeometry x="1" relative="1" as="geometry">
            <mxPoint x="10" as="offset" />
          </mxGeometry>
        </mxCell>
        <mxCell id="JzRAc6Fi7FsVI6vPtPe_-14" value="" style="shape=link;html=1;rounded=0;" parent="1" source="9UmY1VL2F1LapKhUl30l-13" target="9UmY1VL2F1LapKhUl30l-30" edge="1">
          <mxGeometry relative="1" as="geometry">
            <mxPoint x="40" y="-10" as="sourcePoint" />
            <mxPoint x="200" y="-10" as="targetPoint" />
          </mxGeometry>
        </mxCell>
        <mxCell id="JzRAc6Fi7FsVI6vPtPe_-15" value="N" style="resizable=0;html=1;whiteSpace=wrap;align=right;verticalAlign=bottom;" parent="JzRAc6Fi7FsVI6vPtPe_-14" connectable="0" vertex="1">
          <mxGeometry x="1" relative="1" as="geometry">
            <mxPoint x="29" y="9" as="offset" />
          </mxGeometry>
        </mxCell>
        <mxCell id="JzRAc6Fi7FsVI6vPtPe_-16" value="" style="endArrow=none;html=1;rounded=0;" parent="1" source="BiTTlBMMz1A8QfUqZxCa-91" target="BiTTlBMMz1A8QfUqZxCa-129" edge="1">
          <mxGeometry relative="1" as="geometry">
            <mxPoint x="10" y="30" as="sourcePoint" />
            <mxPoint x="170" y="30" as="targetPoint" />
          </mxGeometry>
        </mxCell>
        <mxCell id="JzRAc6Fi7FsVI6vPtPe_-17" value="1" style="resizable=0;html=1;whiteSpace=wrap;align=right;verticalAlign=bottom;" parent="JzRAc6Fi7FsVI6vPtPe_-16" connectable="0" vertex="1">
          <mxGeometry x="1" relative="1" as="geometry">
            <mxPoint x="-20" y="10" as="offset" />
          </mxGeometry>
        </mxCell>
        <mxCell id="JzRAc6Fi7FsVI6vPtPe_-18" value="" style="endArrow=none;html=1;rounded=0;" parent="1" source="BiTTlBMMz1A8QfUqZxCa-91" target="BiTTlBMMz1A8QfUqZxCa-49" edge="1">
          <mxGeometry relative="1" as="geometry">
            <mxPoint x="10" y="40" as="sourcePoint" />
            <mxPoint x="170" y="40" as="targetPoint" />
          </mxGeometry>
        </mxCell>
        <mxCell id="JzRAc6Fi7FsVI6vPtPe_-19" value="1" style="resizable=0;html=1;whiteSpace=wrap;align=right;verticalAlign=bottom;" parent="JzRAc6Fi7FsVI6vPtPe_-18" connectable="0" vertex="1">
          <mxGeometry x="1" relative="1" as="geometry" />
        </mxCell>
        <mxCell id="JzRAc6Fi7FsVI6vPtPe_-20" value="" style="endArrow=none;html=1;rounded=0;" parent="1" source="BiTTlBMMz1A8QfUqZxCa-91" target="9UmY1VL2F1LapKhUl30l-30" edge="1">
          <mxGeometry relative="1" as="geometry">
            <mxPoint y="160" as="sourcePoint" />
            <mxPoint x="160" y="160" as="targetPoint" />
          </mxGeometry>
        </mxCell>
        <mxCell id="JzRAc6Fi7FsVI6vPtPe_-21" value="1" style="resizable=0;html=1;whiteSpace=wrap;align=right;verticalAlign=bottom;" parent="JzRAc6Fi7FsVI6vPtPe_-20" connectable="0" vertex="1">
          <mxGeometry x="1" relative="1" as="geometry" />
        </mxCell>
        <mxCell id="JzRAc6Fi7FsVI6vPtPe_-24" value="" style="shape=link;html=1;rounded=0;" parent="1" source="9UmY1VL2F1LapKhUl30l-42" target="9UmY1VL2F1LapKhUl30l-52" edge="1">
          <mxGeometry relative="1" as="geometry">
            <mxPoint x="-320" y="110" as="sourcePoint" />
            <mxPoint x="-160" y="110" as="targetPoint" />
          </mxGeometry>
        </mxCell>
        <mxCell id="JzRAc6Fi7FsVI6vPtPe_-25" value="N" style="resizable=0;html=1;whiteSpace=wrap;align=right;verticalAlign=bottom;" parent="JzRAc6Fi7FsVI6vPtPe_-24" connectable="0" vertex="1">
          <mxGeometry x="1" relative="1" as="geometry" />
        </mxCell>
        <mxCell id="JzRAc6Fi7FsVI6vPtPe_-28" value="" style="endArrow=none;html=1;rounded=0;" parent="1" source="BiTTlBMMz1A8QfUqZxCa-91" target="9UmY1VL2F1LapKhUl30l-52" edge="1">
          <mxGeometry relative="1" as="geometry">
            <mxPoint x="-330" y="120" as="sourcePoint" />
            <mxPoint x="-170" y="120" as="targetPoint" />
          </mxGeometry>
        </mxCell>
        <mxCell id="JzRAc6Fi7FsVI6vPtPe_-29" value="1" style="resizable=0;html=1;whiteSpace=wrap;align=right;verticalAlign=bottom;" parent="JzRAc6Fi7FsVI6vPtPe_-28" connectable="0" vertex="1">
          <mxGeometry x="1" relative="1" as="geometry">
            <mxPoint x="8" y="1" as="offset" />
          </mxGeometry>
        </mxCell>
        <mxCell id="JzRAc6Fi7FsVI6vPtPe_-30" value="" style="endArrow=none;html=1;rounded=0;" parent="1" source="BiTTlBMMz1A8QfUqZxCa-91" target="ymXso0ggI-foQuHuiPl7-3" edge="1">
          <mxGeometry relative="1" as="geometry">
            <mxPoint x="-530" y="160" as="sourcePoint" />
            <mxPoint x="-370" y="160" as="targetPoint" />
          </mxGeometry>
        </mxCell>
        <mxCell id="JzRAc6Fi7FsVI6vPtPe_-31" value="1" style="resizable=0;html=1;whiteSpace=wrap;align=right;verticalAlign=bottom;" parent="JzRAc6Fi7FsVI6vPtPe_-30" connectable="0" vertex="1">
          <mxGeometry x="1" relative="1" as="geometry">
            <mxPoint x="6" y="-2" as="offset" />
          </mxGeometry>
        </mxCell>
        <mxCell id="JzRAc6Fi7FsVI6vPtPe_-32" value="" style="shape=link;html=1;rounded=0;" parent="1" source="ymXso0ggI-foQuHuiPl7-7" target="ymXso0ggI-foQuHuiPl7-3" edge="1">
          <mxGeometry relative="1" as="geometry">
            <mxPoint x="-630" y="260" as="sourcePoint" />
            <mxPoint x="-470" y="260" as="targetPoint" />
          </mxGeometry>
        </mxCell>
        <mxCell id="JzRAc6Fi7FsVI6vPtPe_-33" value="N" style="resizable=0;html=1;whiteSpace=wrap;align=right;verticalAlign=bottom;" parent="JzRAc6Fi7FsVI6vPtPe_-32" connectable="0" vertex="1">
          <mxGeometry x="1" relative="1" as="geometry">
            <mxPoint x="-25" y="4" as="offset" />
          </mxGeometry>
        </mxCell>
        <mxCell id="6OFuoVVN5uTwgv8q9WtX-6" value="위험 종류" style="rounded=0;whiteSpace=wrap;html=1;" parent="1" vertex="1">
          <mxGeometry x="-1159.08" y="450" width="120" height="60" as="geometry" />
        </mxCell>
        <mxCell id="6OFuoVVN5uTwgv8q9WtX-8" value="&lt;u&gt;위험ID&lt;/u&gt;" style="ellipse;whiteSpace=wrap;html=1;" parent="1" vertex="1">
          <mxGeometry x="-1240" y="465" width="70" height="30" as="geometry" />
        </mxCell>
        <mxCell id="6OFuoVVN5uTwgv8q9WtX-9" value="상세내용" style="ellipse;whiteSpace=wrap;html=1;" parent="1" vertex="1">
          <mxGeometry x="-1229.0800000000002" y="510" width="70" height="30" as="geometry" />
        </mxCell>
        <mxCell id="6OFuoVVN5uTwgv8q9WtX-10" value="" style="endArrow=none;html=1;rounded=0;" parent="1" source="6OFuoVVN5uTwgv8q9WtX-8" target="6OFuoVVN5uTwgv8q9WtX-6" edge="1">
          <mxGeometry relative="1" as="geometry">
            <mxPoint x="-933.7700000000001" y="435" as="sourcePoint" />
            <mxPoint x="-773.7700000000001" y="435" as="targetPoint" />
          </mxGeometry>
        </mxCell>
        <mxCell id="6OFuoVVN5uTwgv8q9WtX-11" value="" style="endArrow=none;html=1;rounded=0;" parent="1" source="6OFuoVVN5uTwgv8q9WtX-9" target="6OFuoVVN5uTwgv8q9WtX-6" edge="1">
          <mxGeometry relative="1" as="geometry">
            <mxPoint x="-933.7700000000001" y="435" as="sourcePoint" />
            <mxPoint x="-773.7700000000001" y="435" as="targetPoint" />
          </mxGeometry>
        </mxCell>
        <mxCell id="th9OgHV7kQ32fKlyRIKF-4" value="자신 경로" style="rounded=0;whiteSpace=wrap;html=1;" parent="1" vertex="1">
          <mxGeometry y="384.17" width="120" height="60" as="geometry" />
        </mxCell>
        <mxCell id="th9OgHV7kQ32fKlyRIKF-10" value="저장 하다" style="shape=rhombus;perimeter=rhombusPerimeter;whiteSpace=wrap;html=1;align=center;" parent="1" vertex="1">
          <mxGeometry y="240" width="120" height="60" as="geometry" />
        </mxCell>
        <mxCell id="th9OgHV7kQ32fKlyRIKF-13" value="기록일" style="ellipse;whiteSpace=wrap;html=1;" parent="1" vertex="1">
          <mxGeometry x="-350" y="350" width="70" height="30" as="geometry" />
        </mxCell>
        <mxCell id="th9OgHV7kQ32fKlyRIKF-14" value="" style="endArrow=none;html=1;rounded=0;" parent="1" source="th9OgHV7kQ32fKlyRIKF-23" target="th9OgHV7kQ32fKlyRIKF-13" edge="1">
          <mxGeometry relative="1" as="geometry">
            <mxPoint x="-298.5561836620393" y="388.3400000000001" as="sourcePoint" />
            <mxPoint x="-105" y="374.34000000000003" as="targetPoint" />
          </mxGeometry>
        </mxCell>
        <mxCell id="th9OgHV7kQ32fKlyRIKF-15" value="경로 정보" style="ellipse;whiteSpace=wrap;html=1;container=0;" parent="1" vertex="1">
          <mxGeometry x="-253" y="349.99999999999994" width="70" height="30" as="geometry" />
        </mxCell>
        <mxCell id="th9OgHV7kQ32fKlyRIKF-16" value="" style="endArrow=none;html=1;rounded=0;" parent="1" source="th9OgHV7kQ32fKlyRIKF-30" target="th9OgHV7kQ32fKlyRIKF-23" edge="1">
          <mxGeometry width="50" height="50" relative="1" as="geometry">
            <mxPoint x="-235" y="348.34000000000003" as="sourcePoint" />
            <mxPoint x="-205" y="407.3857142857145" as="targetPoint" />
          </mxGeometry>
        </mxCell>
        <mxCell id="th9OgHV7kQ32fKlyRIKF-17" value="" style="endArrow=none;html=1;rounded=0;" parent="1" source="th9OgHV7kQ32fKlyRIKF-15" target="th9OgHV7kQ32fKlyRIKF-23" edge="1">
          <mxGeometry width="50" height="50" relative="1" as="geometry">
            <mxPoint x="-235" y="348.34000000000003" as="sourcePoint" />
            <mxPoint x="-237.54423428920063" y="388.3400000000001" as="targetPoint" />
          </mxGeometry>
        </mxCell>
        <mxCell id="th9OgHV7kQ32fKlyRIKF-19" value="" style="endArrow=none;html=1;rounded=0;" parent="1" source="th9OgHV7kQ32fKlyRIKF-20" target="th9OgHV7kQ32fKlyRIKF-23" edge="1">
          <mxGeometry relative="1" as="geometry">
            <mxPoint x="-365" y="418.34" as="sourcePoint" />
            <mxPoint x="-325" y="407.3857142857145" as="targetPoint" />
          </mxGeometry>
        </mxCell>
        <mxCell id="th9OgHV7kQ32fKlyRIKF-20" value="평가결과" style="ellipse;whiteSpace=wrap;html=1;container=0;" parent="1" vertex="1">
          <mxGeometry x="-405" y="384.16999999999996" width="70" height="30" as="geometry" />
        </mxCell>
        <mxCell id="th9OgHV7kQ32fKlyRIKF-23" value="즐겨찾기 경로" style="rounded=0;whiteSpace=wrap;html=1;" parent="1" vertex="1">
          <mxGeometry x="-325" y="385.34000000000003" width="120" height="60" as="geometry" />
        </mxCell>
        <mxCell id="th9OgHV7kQ32fKlyRIKF-27" value="저장 하다" style="shape=rhombus;perimeter=rhombusPerimeter;whiteSpace=wrap;html=1;align=center;" parent="1" vertex="1">
          <mxGeometry x="-325" y="250" width="120" height="60" as="geometry" />
        </mxCell>
        <mxCell id="th9OgHV7kQ32fKlyRIKF-30" value="&lt;u&gt;경로-ID&lt;/u&gt;" style="ellipse;whiteSpace=wrap;html=1;container=0;" parent="1" vertex="1">
          <mxGeometry x="-190" y="379.99999999999994" width="70" height="30" as="geometry" />
        </mxCell>
        <mxCell id="th9OgHV7kQ32fKlyRIKF-31" value="" style="endArrow=none;html=1;rounded=0;" parent="1" source="BiTTlBMMz1A8QfUqZxCa-91" target="th9OgHV7kQ32fKlyRIKF-27" edge="1">
          <mxGeometry relative="1" as="geometry">
            <mxPoint x="-215" y="150" as="sourcePoint" />
            <mxPoint x="-105" y="260" as="targetPoint" />
          </mxGeometry>
        </mxCell>
        <mxCell id="th9OgHV7kQ32fKlyRIKF-32" value="1" style="resizable=0;html=1;whiteSpace=wrap;align=right;verticalAlign=bottom;" parent="th9OgHV7kQ32fKlyRIKF-31" connectable="0" vertex="1">
          <mxGeometry x="1" relative="1" as="geometry">
            <mxPoint x="5" y="-9" as="offset" />
          </mxGeometry>
        </mxCell>
        <mxCell id="th9OgHV7kQ32fKlyRIKF-35" value="참조하다" style="shape=rhombus;perimeter=rhombusPerimeter;whiteSpace=wrap;html=1;align=center;" parent="1" vertex="1">
          <mxGeometry x="-980" y="245" width="120" height="60" as="geometry" />
        </mxCell>
        <mxCell id="th9OgHV7kQ32fKlyRIKF-38" value="" style="shape=link;html=1;rounded=0;" parent="1" source="9UmY1VL2F1LapKhUl30l-1" target="th9OgHV7kQ32fKlyRIKF-35" edge="1">
          <mxGeometry relative="1" as="geometry">
            <mxPoint x="-980" y="210" as="sourcePoint" />
            <mxPoint x="-700" y="230" as="targetPoint" />
          </mxGeometry>
        </mxCell>
        <mxCell id="th9OgHV7kQ32fKlyRIKF-39" value="1" style="resizable=0;html=1;whiteSpace=wrap;align=right;verticalAlign=bottom;" parent="th9OgHV7kQ32fKlyRIKF-38" connectable="0" vertex="1">
          <mxGeometry x="1" relative="1" as="geometry" />
        </mxCell>
        <mxCell id="th9OgHV7kQ32fKlyRIKF-40" value="" style="endArrow=none;html=1;rounded=0;" parent="1" source="ymXso0ggI-foQuHuiPl7-7" target="th9OgHV7kQ32fKlyRIKF-35" edge="1">
          <mxGeometry relative="1" as="geometry">
            <mxPoint x="-840" y="210" as="sourcePoint" />
            <mxPoint x="-890" y="160" as="targetPoint" />
          </mxGeometry>
        </mxCell>
        <mxCell id="th9OgHV7kQ32fKlyRIKF-41" value="N" style="resizable=0;html=1;whiteSpace=wrap;align=right;verticalAlign=bottom;" parent="th9OgHV7kQ32fKlyRIKF-40" connectable="0" vertex="1">
          <mxGeometry x="1" relative="1" as="geometry">
            <mxPoint x="6" as="offset" />
          </mxGeometry>
        </mxCell>
        <mxCell id="th9OgHV7kQ32fKlyRIKF-47" value="참조하다" style="shape=rhombus;perimeter=rhombusPerimeter;whiteSpace=wrap;html=1;align=center;" parent="1" vertex="1">
          <mxGeometry x="280.00000000000006" y="650" width="120" height="60" as="geometry" />
        </mxCell>
        <mxCell id="th9OgHV7kQ32fKlyRIKF-48" value="" style="endArrow=none;html=1;rounded=0;exitX=0.462;exitY=1.01;exitDx=0;exitDy=0;exitPerimeter=0;" parent="1" source="th9OgHV7kQ32fKlyRIKF-23" target="th9OgHV7kQ32fKlyRIKF-47" edge="1">
          <mxGeometry relative="1" as="geometry">
            <mxPoint x="-269" y="534" as="sourcePoint" />
            <mxPoint x="150" y="690" as="targetPoint" />
            <Array as="points">
              <mxPoint x="-269" y="680" />
            </Array>
          </mxGeometry>
        </mxCell>
        <mxCell id="th9OgHV7kQ32fKlyRIKF-49" value="1" style="resizable=0;html=1;whiteSpace=wrap;align=right;verticalAlign=bottom;" parent="th9OgHV7kQ32fKlyRIKF-48" connectable="0" vertex="1">
          <mxGeometry x="1" relative="1" as="geometry">
            <mxPoint as="offset" />
          </mxGeometry>
        </mxCell>
        <mxCell id="th9OgHV7kQ32fKlyRIKF-50" value="" style="endArrow=none;html=1;rounded=0;" parent="1" edge="1">
          <mxGeometry relative="1" as="geometry">
            <mxPoint x="600" y="140" as="sourcePoint" />
            <mxPoint x="400" y="680" as="targetPoint" />
            <Array as="points">
              <mxPoint x="600" y="220" />
              <mxPoint x="800" y="220" />
              <mxPoint x="800" y="680" />
            </Array>
          </mxGeometry>
        </mxCell>
        <mxCell id="th9OgHV7kQ32fKlyRIKF-51" value="1" style="resizable=0;html=1;whiteSpace=wrap;align=right;verticalAlign=bottom;" parent="th9OgHV7kQ32fKlyRIKF-50" connectable="0" vertex="1">
          <mxGeometry x="1" relative="1" as="geometry" />
        </mxCell>
        <mxCell id="th9OgHV7kQ32fKlyRIKF-53" value="장소 리뷰" style="rounded=0;whiteSpace=wrap;html=1;" parent="1" vertex="1">
          <mxGeometry x="-650" y="380" width="120" height="60" as="geometry" />
        </mxCell>
        <mxCell id="th9OgHV7kQ32fKlyRIKF-54" value="작성하다" style="shape=rhombus;perimeter=rhombusPerimeter;whiteSpace=wrap;html=1;align=center;" parent="1" vertex="1">
          <mxGeometry x="-500" y="259.17" width="120" height="60" as="geometry" />
        </mxCell>
        <mxCell id="th9OgHV7kQ32fKlyRIKF-55" value="" style="endArrow=none;html=1;rounded=0;" parent="1" source="BiTTlBMMz1A8QfUqZxCa-91" target="th9OgHV7kQ32fKlyRIKF-54" edge="1">
          <mxGeometry relative="1" as="geometry">
            <mxPoint x="-160" y="147.16" as="sourcePoint" />
            <mxPoint x="-390" y="147.16" as="targetPoint" />
          </mxGeometry>
        </mxCell>
        <mxCell id="th9OgHV7kQ32fKlyRIKF-56" value="1" style="resizable=0;html=1;whiteSpace=wrap;align=right;verticalAlign=bottom;" parent="th9OgHV7kQ32fKlyRIKF-55" connectable="0" vertex="1">
          <mxGeometry x="1" relative="1" as="geometry">
            <mxPoint x="7" y="-1" as="offset" />
          </mxGeometry>
        </mxCell>
        <mxCell id="th9OgHV7kQ32fKlyRIKF-57" value="" style="shape=link;html=1;rounded=0;" parent="1" source="th9OgHV7kQ32fKlyRIKF-53" target="th9OgHV7kQ32fKlyRIKF-54" edge="1">
          <mxGeometry relative="1" as="geometry">
            <mxPoint x="-1010.87" y="-149.44" as="sourcePoint" />
            <mxPoint x="-840.87" y="-149.44" as="targetPoint" />
          </mxGeometry>
        </mxCell>
        <mxCell id="th9OgHV7kQ32fKlyRIKF-58" value="N" style="resizable=0;html=1;whiteSpace=wrap;align=right;verticalAlign=bottom;" parent="th9OgHV7kQ32fKlyRIKF-57" connectable="0" vertex="1">
          <mxGeometry x="1" relative="1" as="geometry">
            <mxPoint x="-22" y="5" as="offset" />
          </mxGeometry>
        </mxCell>
        <mxCell id="th9OgHV7kQ32fKlyRIKF-59" value="&lt;u&gt;리뷰ID&lt;/u&gt;" style="ellipse;whiteSpace=wrap;html=1;" parent="1" vertex="1">
          <mxGeometry x="-735" y="421" width="70" height="30" as="geometry" />
        </mxCell>
        <mxCell id="th9OgHV7kQ32fKlyRIKF-61" value="리뷰 내용" style="ellipse;whiteSpace=wrap;html=1;" parent="1" vertex="1">
          <mxGeometry x="-725" y="380" width="70" height="30" as="geometry" />
        </mxCell>
        <mxCell id="th9OgHV7kQ32fKlyRIKF-64" value="작성시간" style="ellipse;whiteSpace=wrap;html=1;" parent="1" vertex="1">
          <mxGeometry x="-705" y="460.00000000000006" width="70" height="30" as="geometry" />
        </mxCell>
        <mxCell id="th9OgHV7kQ32fKlyRIKF-68" value="" style="endArrow=none;html=1;rounded=0;" parent="1" source="th9OgHV7kQ32fKlyRIKF-61" target="th9OgHV7kQ32fKlyRIKF-53" edge="1">
          <mxGeometry relative="1" as="geometry">
            <mxPoint x="-820.87" y="448.75" as="sourcePoint" />
            <mxPoint x="-660.87" y="448.75" as="targetPoint" />
          </mxGeometry>
        </mxCell>
        <mxCell id="th9OgHV7kQ32fKlyRIKF-69" value="" style="endArrow=none;html=1;rounded=0;" parent="1" source="th9OgHV7kQ32fKlyRIKF-59" target="th9OgHV7kQ32fKlyRIKF-53" edge="1">
          <mxGeometry relative="1" as="geometry">
            <mxPoint x="-820.87" y="448.75" as="sourcePoint" />
            <mxPoint x="-660.87" y="448.75" as="targetPoint" />
          </mxGeometry>
        </mxCell>
        <mxCell id="th9OgHV7kQ32fKlyRIKF-70" value="" style="endArrow=none;html=1;rounded=0;" parent="1" source="th9OgHV7kQ32fKlyRIKF-64" target="th9OgHV7kQ32fKlyRIKF-53" edge="1">
          <mxGeometry relative="1" as="geometry">
            <mxPoint x="-820.87" y="448.75" as="sourcePoint" />
            <mxPoint x="-660.87" y="448.75" as="targetPoint" />
          </mxGeometry>
        </mxCell>
        <mxCell id="7p8l1VqGSFD4vSBbtAQZ-1" value="대처방법" style="ellipse;whiteSpace=wrap;html=1;" parent="1" vertex="1">
          <mxGeometry x="-1135" y="520" width="70" height="30" as="geometry" />
        </mxCell>
        <mxCell id="7p8l1VqGSFD4vSBbtAQZ-4" value="" style="endArrow=none;html=1;rounded=0;" parent="1" source="7p8l1VqGSFD4vSBbtAQZ-1" target="6OFuoVVN5uTwgv8q9WtX-6" edge="1">
          <mxGeometry relative="1" as="geometry">
            <mxPoint x="-672.0805519258168" y="518.8109350756081" as="sourcePoint" />
            <mxPoint x="-766.87" y="534.96" as="targetPoint" />
          </mxGeometry>
        </mxCell>
        <mxCell id="7p8l1VqGSFD4vSBbtAQZ-7" value="참조하다" style="shape=rhombus;perimeter=rhombusPerimeter;whiteSpace=wrap;html=1;align=center;" parent="1" vertex="1">
          <mxGeometry x="-1160" y="350" width="120" height="60" as="geometry" />
        </mxCell>
        <mxCell id="7p8l1VqGSFD4vSBbtAQZ-10" value="" style="endArrow=none;html=1;rounded=0;" parent="1" source="6OFuoVVN5uTwgv8q9WtX-6" target="7p8l1VqGSFD4vSBbtAQZ-7" edge="1">
          <mxGeometry relative="1" as="geometry">
            <mxPoint x="-834.73" y="363.98" as="sourcePoint" />
            <mxPoint x="-895.73" y="364.98" as="targetPoint" />
          </mxGeometry>
        </mxCell>
        <mxCell id="7p8l1VqGSFD4vSBbtAQZ-11" value="N" style="resizable=0;html=1;whiteSpace=wrap;align=right;verticalAlign=bottom;" parent="7p8l1VqGSFD4vSBbtAQZ-10" connectable="0" vertex="1">
          <mxGeometry x="1" relative="1" as="geometry">
            <mxPoint x="21" y="15" as="offset" />
          </mxGeometry>
        </mxCell>
        <mxCell id="7p8l1VqGSFD4vSBbtAQZ-12" value="" style="shape=link;html=1;rounded=0;" parent="1" source="9UmY1VL2F1LapKhUl30l-1" target="7p8l1VqGSFD4vSBbtAQZ-7" edge="1">
          <mxGeometry relative="1" as="geometry">
            <mxPoint x="-1060" y="370" as="sourcePoint" />
            <mxPoint x="-1000" y="370" as="targetPoint" />
          </mxGeometry>
        </mxCell>
        <mxCell id="7p8l1VqGSFD4vSBbtAQZ-14" value="1" style="resizable=0;html=1;whiteSpace=wrap;align=right;verticalAlign=bottom;" parent="7p8l1VqGSFD4vSBbtAQZ-12" connectable="0" vertex="1">
          <mxGeometry x="1" relative="1" as="geometry">
            <mxPoint x="20" as="offset" />
          </mxGeometry>
        </mxCell>
        <mxCell id="7p8l1VqGSFD4vSBbtAQZ-16" value="글 종류" style="ellipse;whiteSpace=wrap;html=1;container=0;" parent="1" vertex="1">
          <mxGeometry x="478.48" y="150" width="70" height="30" as="geometry" />
        </mxCell>
        <mxCell id="7p8l1VqGSFD4vSBbtAQZ-17" value="" style="endArrow=none;html=1;rounded=0;" parent="1" source="7p8l1VqGSFD4vSBbtAQZ-16" target="BiTTlBMMz1A8QfUqZxCa-44" edge="1">
          <mxGeometry relative="1" as="geometry">
            <mxPoint x="615.56" y="48.38" as="sourcePoint" />
            <mxPoint x="561.56" y="81.38" as="targetPoint" />
          </mxGeometry>
        </mxCell>
        <mxCell id="7p8l1VqGSFD4vSBbtAQZ-18" value="좋아요 수" style="ellipse;whiteSpace=wrap;html=1;container=0;" parent="1" vertex="1">
          <mxGeometry x="560" y="20" width="70" height="30" as="geometry" />
        </mxCell>
        <mxCell id="7p8l1VqGSFD4vSBbtAQZ-19" value="" style="endArrow=none;html=1;rounded=0;" parent="1" source="7p8l1VqGSFD4vSBbtAQZ-18" target="BiTTlBMMz1A8QfUqZxCa-44" edge="1">
          <mxGeometry relative="1" as="geometry">
            <mxPoint x="614.05" y="49.73" as="sourcePoint" />
            <mxPoint x="560.05" y="82.73" as="targetPoint" />
          </mxGeometry>
        </mxCell>
        <mxCell id="7p8l1VqGSFD4vSBbtAQZ-21" value="참조하다" style="shape=rhombus;perimeter=rhombusPerimeter;whiteSpace=wrap;html=1;align=center;" parent="1" vertex="1">
          <mxGeometry x="-1001" y="547" width="120" height="60" as="geometry" />
        </mxCell>
        <mxCell id="NNnHZDkGo-gfW5Nsurmc-4" value="장소 정보" style="rounded=0;whiteSpace=wrap;html=1;" parent="1" vertex="1">
          <mxGeometry x="-246" y="880" width="120" height="60" as="geometry" />
        </mxCell>
        <mxCell id="NNnHZDkGo-gfW5Nsurmc-5" value="&lt;u&gt;장소ID&lt;/u&gt;" style="ellipse;whiteSpace=wrap;html=1;" parent="1" vertex="1">
          <mxGeometry x="-316" y="940" width="70" height="30" as="geometry" />
        </mxCell>
        <mxCell id="NNnHZDkGo-gfW5Nsurmc-6" value="장소 이름" style="ellipse;whiteSpace=wrap;html=1;" parent="1" vertex="1">
          <mxGeometry x="-266" y="970" width="70" height="30" as="geometry" />
        </mxCell>
        <mxCell id="NNnHZDkGo-gfW5Nsurmc-7" value="장소 위치" style="ellipse;whiteSpace=wrap;html=1;" parent="1" vertex="1">
          <mxGeometry x="-186" y="970" width="70" height="30" as="geometry" />
        </mxCell>
        <mxCell id="NNnHZDkGo-gfW5Nsurmc-8" value="장소 설명" style="ellipse;whiteSpace=wrap;html=1;" parent="1" vertex="1">
          <mxGeometry x="-126" y="940" width="70" height="30" as="geometry" />
        </mxCell>
        <mxCell id="NNnHZDkGo-gfW5Nsurmc-9" value="" style="endArrow=none;html=1;rounded=0;" parent="1" source="NNnHZDkGo-gfW5Nsurmc-5" target="NNnHZDkGo-gfW5Nsurmc-4" edge="1">
          <mxGeometry width="50" height="50" relative="1" as="geometry">
            <mxPoint x="-296" y="820" as="sourcePoint" />
            <mxPoint x="-246" y="770" as="targetPoint" />
          </mxGeometry>
        </mxCell>
        <mxCell id="NNnHZDkGo-gfW5Nsurmc-10" value="" style="endArrow=none;html=1;rounded=0;" parent="1" source="NNnHZDkGo-gfW5Nsurmc-6" target="NNnHZDkGo-gfW5Nsurmc-4" edge="1">
          <mxGeometry width="50" height="50" relative="1" as="geometry">
            <mxPoint x="-296" y="820" as="sourcePoint" />
            <mxPoint x="-246" y="770" as="targetPoint" />
          </mxGeometry>
        </mxCell>
        <mxCell id="NNnHZDkGo-gfW5Nsurmc-11" value="" style="endArrow=none;html=1;rounded=0;" parent="1" source="NNnHZDkGo-gfW5Nsurmc-7" target="NNnHZDkGo-gfW5Nsurmc-4" edge="1">
          <mxGeometry width="50" height="50" relative="1" as="geometry">
            <mxPoint x="-296" y="820" as="sourcePoint" />
            <mxPoint x="-246" y="770" as="targetPoint" />
          </mxGeometry>
        </mxCell>
        <mxCell id="NNnHZDkGo-gfW5Nsurmc-12" value="" style="endArrow=none;html=1;rounded=0;" parent="1" source="NNnHZDkGo-gfW5Nsurmc-4" target="NNnHZDkGo-gfW5Nsurmc-8" edge="1">
          <mxGeometry width="50" height="50" relative="1" as="geometry">
            <mxPoint x="-296" y="820" as="sourcePoint" />
            <mxPoint x="-246" y="770" as="targetPoint" />
          </mxGeometry>
        </mxCell>
        <mxCell id="NNnHZDkGo-gfW5Nsurmc-13" value="기록 되다" style="shape=rhombus;perimeter=rhombusPerimeter;whiteSpace=wrap;html=1;align=center;" parent="1" vertex="1">
          <mxGeometry x="-650" y="740" width="120" height="60" as="geometry" />
        </mxCell>
        <mxCell id="NNnHZDkGo-gfW5Nsurmc-14" value="" style="shape=link;html=1;rounded=0;" parent="1" source="NNnHZDkGo-gfW5Nsurmc-4" target="NNnHZDkGo-gfW5Nsurmc-13" edge="1">
          <mxGeometry relative="1" as="geometry">
            <mxPoint x="-460" y="631.09" as="sourcePoint" />
            <mxPoint x="-300" y="631.09" as="targetPoint" />
          </mxGeometry>
        </mxCell>
        <mxCell id="NNnHZDkGo-gfW5Nsurmc-15" value="N" style="resizable=0;html=1;whiteSpace=wrap;align=right;verticalAlign=bottom;" parent="NNnHZDkGo-gfW5Nsurmc-14" connectable="0" vertex="1">
          <mxGeometry x="1" relative="1" as="geometry">
            <mxPoint x="33" y="4" as="offset" />
          </mxGeometry>
        </mxCell>
        <mxCell id="NNnHZDkGo-gfW5Nsurmc-16" value="" style="endArrow=none;html=1;rounded=0;" parent="1" source="th9OgHV7kQ32fKlyRIKF-53" target="NNnHZDkGo-gfW5Nsurmc-13" edge="1">
          <mxGeometry relative="1" as="geometry">
            <mxPoint x="-630" y="520" as="sourcePoint" />
            <mxPoint x="-470" y="520" as="targetPoint" />
          </mxGeometry>
        </mxCell>
        <mxCell id="NNnHZDkGo-gfW5Nsurmc-17" value="1" style="resizable=0;html=1;whiteSpace=wrap;align=right;verticalAlign=bottom;" parent="NNnHZDkGo-gfW5Nsurmc-16" connectable="0" vertex="1">
          <mxGeometry x="1" relative="1" as="geometry">
            <mxPoint x="12" y="-1" as="offset" />
          </mxGeometry>
        </mxCell>
        <mxCell id="NNnHZDkGo-gfW5Nsurmc-22" value="&lt;u&gt;처리ID&lt;/u&gt;" style="ellipse;whiteSpace=wrap;html=1;container=0;" parent="1" vertex="1">
          <mxGeometry x="420.49" y="540" width="70" height="30" as="geometry" />
        </mxCell>
        <mxCell id="NNnHZDkGo-gfW5Nsurmc-25" value="&lt;u&gt;신고ID&lt;/u&gt;" style="ellipse;whiteSpace=wrap;html=1;container=0;" parent="1" vertex="1">
          <mxGeometry x="420.49000000000007" y="495" width="70" height="30" as="geometry" />
        </mxCell>
        <mxCell id="NNnHZDkGo-gfW5Nsurmc-26" value="신고 처리 결과" style="shape=ext;margin=3;double=1;whiteSpace=wrap;html=1;align=center;" parent="1" vertex="1">
          <mxGeometry x="505.49" y="520" width="100" height="40" as="geometry" />
        </mxCell>
        <mxCell id="NNnHZDkGo-gfW5Nsurmc-27" value="처리하다" style="shape=rhombus;double=1;perimeter=rhombusPerimeter;whiteSpace=wrap;html=1;align=center;" parent="1" vertex="1">
          <mxGeometry x="495.49" y="426.17" width="120" height="60" as="geometry" />
        </mxCell>
        <mxCell id="NNnHZDkGo-gfW5Nsurmc-29" value="정지 사유" style="ellipse;whiteSpace=wrap;html=1;container=0;" parent="1" vertex="1">
          <mxGeometry x="615.49" y="495" width="70" height="30" as="geometry" />
        </mxCell>
        <mxCell id="NNnHZDkGo-gfW5Nsurmc-30" value="정지 기한" style="ellipse;whiteSpace=wrap;html=1;container=0;" parent="1" vertex="1">
          <mxGeometry x="615.49" y="540" width="70" height="30" as="geometry" />
        </mxCell>
        <mxCell id="NNnHZDkGo-gfW5Nsurmc-32" value="" style="endArrow=none;html=1;rounded=0;" parent="1" source="NNnHZDkGo-gfW5Nsurmc-22" target="NNnHZDkGo-gfW5Nsurmc-26" edge="1">
          <mxGeometry relative="1" as="geometry">
            <mxPoint x="420" y="490" as="sourcePoint" />
            <mxPoint x="580" y="490" as="targetPoint" />
          </mxGeometry>
        </mxCell>
        <mxCell id="NNnHZDkGo-gfW5Nsurmc-33" value="" style="endArrow=none;html=1;rounded=0;" parent="1" source="NNnHZDkGo-gfW5Nsurmc-25" target="NNnHZDkGo-gfW5Nsurmc-26" edge="1">
          <mxGeometry relative="1" as="geometry">
            <mxPoint x="420" y="490" as="sourcePoint" />
            <mxPoint x="580" y="490" as="targetPoint" />
          </mxGeometry>
        </mxCell>
        <mxCell id="NNnHZDkGo-gfW5Nsurmc-34" value="" style="endArrow=none;html=1;rounded=0;" parent="1" source="NNnHZDkGo-gfW5Nsurmc-29" target="NNnHZDkGo-gfW5Nsurmc-26" edge="1">
          <mxGeometry relative="1" as="geometry">
            <mxPoint x="420" y="490" as="sourcePoint" />
            <mxPoint x="580" y="490" as="targetPoint" />
          </mxGeometry>
        </mxCell>
        <mxCell id="NNnHZDkGo-gfW5Nsurmc-35" value="" style="endArrow=none;html=1;rounded=0;" parent="1" source="NNnHZDkGo-gfW5Nsurmc-26" target="NNnHZDkGo-gfW5Nsurmc-30" edge="1">
          <mxGeometry relative="1" as="geometry">
            <mxPoint x="420" y="490" as="sourcePoint" />
            <mxPoint x="580" y="490" as="targetPoint" />
          </mxGeometry>
        </mxCell>
        <mxCell id="NNnHZDkGo-gfW5Nsurmc-36" value="" style="shape=link;html=1;rounded=0;" parent="1" source="NNnHZDkGo-gfW5Nsurmc-26" target="NNnHZDkGo-gfW5Nsurmc-27" edge="1">
          <mxGeometry relative="1" as="geometry">
            <mxPoint x="420" y="490" as="sourcePoint" />
            <mxPoint x="580" y="490" as="targetPoint" />
          </mxGeometry>
        </mxCell>
        <mxCell id="NNnHZDkGo-gfW5Nsurmc-37" value="1" style="resizable=0;html=1;whiteSpace=wrap;align=right;verticalAlign=bottom;" parent="NNnHZDkGo-gfW5Nsurmc-36" connectable="0" vertex="1">
          <mxGeometry x="1" relative="1" as="geometry">
            <mxPoint x="-4" y="15" as="offset" />
          </mxGeometry>
        </mxCell>
        <mxCell id="NNnHZDkGo-gfW5Nsurmc-38" value="" style="endArrow=none;html=1;rounded=0;" parent="1" source="9UmY1VL2F1LapKhUl30l-13" target="NNnHZDkGo-gfW5Nsurmc-27" edge="1">
          <mxGeometry relative="1" as="geometry">
            <mxPoint x="420" y="490" as="sourcePoint" />
            <mxPoint x="580" y="490" as="targetPoint" />
          </mxGeometry>
        </mxCell>
        <mxCell id="NNnHZDkGo-gfW5Nsurmc-39" value="1" style="resizable=0;html=1;whiteSpace=wrap;align=right;verticalAlign=bottom;" parent="NNnHZDkGo-gfW5Nsurmc-38" connectable="0" vertex="1">
          <mxGeometry x="1" relative="1" as="geometry">
            <mxPoint x="-4" y="1" as="offset" />
          </mxGeometry>
        </mxCell>
        <mxCell id="NNnHZDkGo-gfW5Nsurmc-40" value="설정" style="shape=ext;margin=3;double=1;whiteSpace=wrap;html=1;align=center;" parent="1" vertex="1">
          <mxGeometry x="-150" y="-330" width="100" height="40" as="geometry" />
        </mxCell>
        <mxCell id="NNnHZDkGo-gfW5Nsurmc-41" value="기록 하다" style="shape=rhombus;double=1;perimeter=rhombusPerimeter;whiteSpace=wrap;html=1;align=center;" parent="1" vertex="1">
          <mxGeometry x="-160" y="-134" width="120" height="60" as="geometry" />
        </mxCell>
        <mxCell id="NNnHZDkGo-gfW5Nsurmc-42" value="" style="shape=link;html=1;rounded=0;" parent="1" source="BiTTlBMMz1A8QfUqZxCa-91" target="NNnHZDkGo-gfW5Nsurmc-41" edge="1">
          <mxGeometry relative="1" as="geometry">
            <mxPoint x="-170" y="-120" as="sourcePoint" />
            <mxPoint x="-10" y="-120" as="targetPoint" />
          </mxGeometry>
        </mxCell>
        <mxCell id="NNnHZDkGo-gfW5Nsurmc-43" value="1" style="resizable=0;html=1;whiteSpace=wrap;align=right;verticalAlign=bottom;" parent="NNnHZDkGo-gfW5Nsurmc-42" connectable="0" vertex="1">
          <mxGeometry x="1" relative="1" as="geometry">
            <mxPoint x="-4" y="14" as="offset" />
          </mxGeometry>
        </mxCell>
        <mxCell id="NNnHZDkGo-gfW5Nsurmc-44" value="" style="shape=link;html=1;rounded=0;" parent="1" source="NNnHZDkGo-gfW5Nsurmc-40" target="NNnHZDkGo-gfW5Nsurmc-41" edge="1">
          <mxGeometry relative="1" as="geometry">
            <mxPoint x="-115" y="-169" as="sourcePoint" />
            <mxPoint x="45" y="-169" as="targetPoint" />
          </mxGeometry>
        </mxCell>
        <mxCell id="NNnHZDkGo-gfW5Nsurmc-45" value="1" style="resizable=0;html=1;whiteSpace=wrap;align=right;verticalAlign=bottom;" parent="NNnHZDkGo-gfW5Nsurmc-44" connectable="0" vertex="1">
          <mxGeometry x="1" relative="1" as="geometry">
            <mxPoint x="-4" y="1" as="offset" />
          </mxGeometry>
        </mxCell>
        <mxCell id="NNnHZDkGo-gfW5Nsurmc-46" value="야간모드" style="ellipse;whiteSpace=wrap;html=1;" parent="1" vertex="1">
          <mxGeometry x="-205" y="-370" width="70" height="30" as="geometry" />
        </mxCell>
        <mxCell id="NNnHZDkGo-gfW5Nsurmc-47" value="알림강도" style="ellipse;whiteSpace=wrap;html=1;" parent="1" vertex="1">
          <mxGeometry x="-60" y="-370" width="70" height="30" as="geometry" />
        </mxCell>
        <mxCell id="NNnHZDkGo-gfW5Nsurmc-50" value="색약모드" style="ellipse;whiteSpace=wrap;html=1;" parent="1" vertex="1">
          <mxGeometry x="-135" y="-370" width="70" height="30" as="geometry" />
        </mxCell>
        <mxCell id="NNnHZDkGo-gfW5Nsurmc-51" value="&lt;u&gt;설정ID&lt;/u&gt;" style="ellipse;whiteSpace=wrap;html=1;" parent="1" vertex="1">
          <mxGeometry x="-199" y="-280" width="70" height="30" as="geometry" />
        </mxCell>
        <mxCell id="NNnHZDkGo-gfW5Nsurmc-52" value="&lt;u&gt;사용자ID&lt;/u&gt;" style="ellipse;whiteSpace=wrap;html=1;" parent="1" vertex="1">
          <mxGeometry x="-230" y="-325" width="70" height="30" as="geometry" />
        </mxCell>
        <mxCell id="NNnHZDkGo-gfW5Nsurmc-54" value="" style="endArrow=none;html=1;rounded=0;" parent="1" source="NNnHZDkGo-gfW5Nsurmc-46" target="NNnHZDkGo-gfW5Nsurmc-40" edge="1">
          <mxGeometry relative="1" as="geometry">
            <mxPoint x="-190" y="-290" as="sourcePoint" />
            <mxPoint x="-30" y="-290" as="targetPoint" />
          </mxGeometry>
        </mxCell>
        <mxCell id="NNnHZDkGo-gfW5Nsurmc-55" value="" style="endArrow=none;html=1;rounded=0;" parent="1" source="NNnHZDkGo-gfW5Nsurmc-51" target="NNnHZDkGo-gfW5Nsurmc-40" edge="1">
          <mxGeometry relative="1" as="geometry">
            <mxPoint x="-190" y="-290" as="sourcePoint" />
            <mxPoint x="-30" y="-290" as="targetPoint" />
          </mxGeometry>
        </mxCell>
        <mxCell id="NNnHZDkGo-gfW5Nsurmc-56" value="" style="endArrow=none;html=1;rounded=0;" parent="1" source="NNnHZDkGo-gfW5Nsurmc-52" target="NNnHZDkGo-gfW5Nsurmc-40" edge="1">
          <mxGeometry relative="1" as="geometry">
            <mxPoint x="-190" y="-290" as="sourcePoint" />
            <mxPoint x="-30" y="-290" as="targetPoint" />
          </mxGeometry>
        </mxCell>
        <mxCell id="NNnHZDkGo-gfW5Nsurmc-57" value="" style="endArrow=none;html=1;rounded=0;" parent="1" source="NNnHZDkGo-gfW5Nsurmc-50" target="NNnHZDkGo-gfW5Nsurmc-40" edge="1">
          <mxGeometry relative="1" as="geometry">
            <mxPoint x="-190" y="-290" as="sourcePoint" />
            <mxPoint x="-90" y="-280" as="targetPoint" />
          </mxGeometry>
        </mxCell>
        <mxCell id="NNnHZDkGo-gfW5Nsurmc-58" value="" style="endArrow=none;html=1;rounded=0;" parent="1" source="NNnHZDkGo-gfW5Nsurmc-47" target="NNnHZDkGo-gfW5Nsurmc-40" edge="1">
          <mxGeometry relative="1" as="geometry">
            <mxPoint x="-190" y="-290" as="sourcePoint" />
            <mxPoint x="-30" y="-290" as="targetPoint" />
          </mxGeometry>
        </mxCell>
        <mxCell id="NNnHZDkGo-gfW5Nsurmc-59" value="위험 지역 기록 정보" style="rounded=0;whiteSpace=wrap;html=1;" parent="1" vertex="1">
          <mxGeometry x="-845" y="630" width="120" height="60" as="geometry" />
        </mxCell>
        <mxCell id="NNnHZDkGo-gfW5Nsurmc-60" value="참조하다" style="shape=rhombus;perimeter=rhombusPerimeter;whiteSpace=wrap;html=1;align=center;" parent="1" vertex="1">
          <mxGeometry x="-980" y="349.99999999999994" width="120" height="60" as="geometry" />
        </mxCell>
        <mxCell id="NNnHZDkGo-gfW5Nsurmc-61" value="" style="shape=link;html=1;rounded=0;" parent="1" source="6OFuoVVN5uTwgv8q9WtX-6" target="NNnHZDkGo-gfW5Nsurmc-60" edge="1">
          <mxGeometry relative="1" as="geometry">
            <mxPoint x="-1046.32" y="455.00395309119864" as="sourcePoint" />
            <mxPoint x="-660.66" y="453.32" as="targetPoint" />
          </mxGeometry>
        </mxCell>
        <mxCell id="NNnHZDkGo-gfW5Nsurmc-62" value="1" style="resizable=0;html=1;whiteSpace=wrap;align=right;verticalAlign=bottom;" parent="NNnHZDkGo-gfW5Nsurmc-61" connectable="0" vertex="1">
          <mxGeometry x="1" relative="1" as="geometry">
            <mxPoint x="5" y="23" as="offset" />
          </mxGeometry>
        </mxCell>
        <mxCell id="NNnHZDkGo-gfW5Nsurmc-63" value="" style="endArrow=none;html=1;rounded=0;" parent="1" source="ymXso0ggI-foQuHuiPl7-7" target="NNnHZDkGo-gfW5Nsurmc-60" edge="1">
          <mxGeometry relative="1" as="geometry">
            <mxPoint x="-793.6832815665093" y="309.01000000000005" as="sourcePoint" />
            <mxPoint x="-670.66" y="352.48999999999995" as="targetPoint" />
          </mxGeometry>
        </mxCell>
        <mxCell id="NNnHZDkGo-gfW5Nsurmc-64" value="N" style="resizable=0;html=1;whiteSpace=wrap;align=right;verticalAlign=bottom;" parent="NNnHZDkGo-gfW5Nsurmc-63" connectable="0" vertex="1">
          <mxGeometry x="1" relative="1" as="geometry">
            <mxPoint x="28" y="8" as="offset" />
          </mxGeometry>
        </mxCell>
        <mxCell id="NNnHZDkGo-gfW5Nsurmc-65" value="&lt;u&gt;위험지역ID&lt;/u&gt;" style="ellipse;whiteSpace=wrap;html=1;" parent="1" vertex="1">
          <mxGeometry x="-940" y="665" width="70" height="30" as="geometry" />
        </mxCell>
        <mxCell id="NNnHZDkGo-gfW5Nsurmc-66" value="" style="endArrow=none;html=1;rounded=0;" parent="1" source="NNnHZDkGo-gfW5Nsurmc-65" target="NNnHZDkGo-gfW5Nsurmc-59" edge="1">
          <mxGeometry relative="1" as="geometry">
            <mxPoint x="-970" y="640" as="sourcePoint" />
            <mxPoint x="-810" y="640" as="targetPoint" />
          </mxGeometry>
        </mxCell>
        <mxCell id="NNnHZDkGo-gfW5Nsurmc-73" value="" style="shape=link;html=1;rounded=0;entryX=0.747;entryY=0.717;entryDx=0;entryDy=0;entryPerimeter=0;" parent="1" source="NNnHZDkGo-gfW5Nsurmc-59" target="7p8l1VqGSFD4vSBbtAQZ-21" edge="1">
          <mxGeometry relative="1" as="geometry">
            <mxPoint x="-844.9955421686749" y="630" as="sourcePoint" />
            <mxPoint x="-920" y="590" as="targetPoint" />
          </mxGeometry>
        </mxCell>
        <mxCell id="NNnHZDkGo-gfW5Nsurmc-74" value="N" style="resizable=0;html=1;whiteSpace=wrap;align=right;verticalAlign=bottom;" parent="NNnHZDkGo-gfW5Nsurmc-73" connectable="0" vertex="1">
          <mxGeometry x="1" relative="1" as="geometry">
            <mxPoint x="30" y="10" as="offset" />
          </mxGeometry>
        </mxCell>
        <mxCell id="NNnHZDkGo-gfW5Nsurmc-75" value="" style="endArrow=none;html=1;rounded=0;" parent="1" source="6OFuoVVN5uTwgv8q9WtX-6" target="7p8l1VqGSFD4vSBbtAQZ-21" edge="1">
          <mxGeometry relative="1" as="geometry">
            <mxPoint x="-1030" y="520" as="sourcePoint" />
            <mxPoint x="-870" y="520" as="targetPoint" />
          </mxGeometry>
        </mxCell>
        <mxCell id="NNnHZDkGo-gfW5Nsurmc-76" value="1" style="resizable=0;html=1;whiteSpace=wrap;align=right;verticalAlign=bottom;" parent="NNnHZDkGo-gfW5Nsurmc-75" connectable="0" vertex="1">
          <mxGeometry x="1" relative="1" as="geometry">
            <mxPoint x="4" y="-4" as="offset" />
          </mxGeometry>
        </mxCell>
        <mxCell id="NNnHZDkGo-gfW5Nsurmc-77" value="위험위치" style="ellipse;whiteSpace=wrap;html=1;" parent="1" vertex="1">
          <mxGeometry x="-910" y="700" width="70" height="30" as="geometry" />
        </mxCell>
        <mxCell id="NNnHZDkGo-gfW5Nsurmc-78" value="위험단계" style="ellipse;whiteSpace=wrap;html=1;" parent="1" vertex="1">
          <mxGeometry x="-830" y="710" width="70" height="30" as="geometry" />
        </mxCell>
        <mxCell id="NNnHZDkGo-gfW5Nsurmc-79" value="위험반경" style="ellipse;whiteSpace=wrap;html=1;" parent="1" vertex="1">
          <mxGeometry x="-750" y="710" width="70" height="30" as="geometry" />
        </mxCell>
        <mxCell id="NNnHZDkGo-gfW5Nsurmc-80" value="" style="endArrow=none;html=1;rounded=0;" parent="1" source="NNnHZDkGo-gfW5Nsurmc-77" target="NNnHZDkGo-gfW5Nsurmc-59" edge="1">
          <mxGeometry relative="1" as="geometry">
            <mxPoint x="-850" y="620" as="sourcePoint" />
            <mxPoint x="-690" y="620" as="targetPoint" />
          </mxGeometry>
        </mxCell>
        <mxCell id="NNnHZDkGo-gfW5Nsurmc-81" value="" style="endArrow=none;html=1;rounded=0;" parent="1" source="NNnHZDkGo-gfW5Nsurmc-78" target="NNnHZDkGo-gfW5Nsurmc-59" edge="1">
          <mxGeometry relative="1" as="geometry">
            <mxPoint x="-850" y="620" as="sourcePoint" />
            <mxPoint x="-690" y="620" as="targetPoint" />
          </mxGeometry>
        </mxCell>
        <mxCell id="NNnHZDkGo-gfW5Nsurmc-82" value="" style="endArrow=none;html=1;rounded=0;" parent="1" source="NNnHZDkGo-gfW5Nsurmc-59" target="NNnHZDkGo-gfW5Nsurmc-79" edge="1">
          <mxGeometry relative="1" as="geometry">
            <mxPoint x="-707.5" y="689.9968421052629" as="sourcePoint" />
            <mxPoint x="-672.5" y="675.26" as="targetPoint" />
          </mxGeometry>
        </mxCell>
        <mxCell id="-GX_5Cg82I3G_Sg_9txt-1" value="" style="endArrow=none;html=1;rounded=0;" parent="1" source="-GX_5Cg82I3G_Sg_9txt-3" target="BiTTlBMMz1A8QfUqZxCa-91" edge="1">
          <mxGeometry width="50" height="50" relative="1" as="geometry">
            <mxPoint x="-80" y="180" as="sourcePoint" />
            <mxPoint x="-40" y="60" as="targetPoint" />
          </mxGeometry>
        </mxCell>
        <mxCell id="-GX_5Cg82I3G_Sg_9txt-3" value="계정 상태" style="ellipse;whiteSpace=wrap;html=1;" parent="1" vertex="1">
          <mxGeometry x="-97" y="180" width="70" height="30" as="geometry" />
        </mxCell>
        <mxCell id="-GX_5Cg82I3G_Sg_9txt-7" value="경로순서" style="ellipse;whiteSpace=wrap;html=1;" parent="1" vertex="1">
          <mxGeometry x="-500" y="543" width="70" height="30" as="geometry" />
        </mxCell>
        <mxCell id="-GX_5Cg82I3G_Sg_9txt-8" value="" style="endArrow=none;html=1;rounded=0;" parent="1" source="-GX_5Cg82I3G_Sg_9txt-16" target="-GX_5Cg82I3G_Sg_9txt-7" edge="1">
          <mxGeometry relative="1" as="geometry">
            <mxPoint x="-397.7209517971414" y="555.3400000000001" as="sourcePoint" />
            <mxPoint x="-208" y="544.34" as="targetPoint" />
          </mxGeometry>
        </mxCell>
        <mxCell id="-GX_5Cg82I3G_Sg_9txt-9" value="경로위치" style="ellipse;whiteSpace=wrap;html=1;container=0;" parent="1" vertex="1">
          <mxGeometry x="-440" y="519.9999999999999" width="70" height="30" as="geometry" />
        </mxCell>
        <mxCell id="-GX_5Cg82I3G_Sg_9txt-11" value="" style="endArrow=none;html=1;rounded=0;" parent="1" source="-GX_5Cg82I3G_Sg_9txt-9" target="-GX_5Cg82I3G_Sg_9txt-16" edge="1">
          <mxGeometry width="50" height="50" relative="1" as="geometry">
            <mxPoint x="-338" y="518.34" as="sourcePoint" />
            <mxPoint x="-339.99046483909433" y="555.3400000000001" as="targetPoint" />
          </mxGeometry>
        </mxCell>
        <mxCell id="-GX_5Cg82I3G_Sg_9txt-12" value="" style="endArrow=none;html=1;rounded=0;" parent="1" source="-GX_5Cg82I3G_Sg_9txt-13" target="-GX_5Cg82I3G_Sg_9txt-16" edge="1">
          <mxGeometry relative="1" as="geometry">
            <mxPoint x="-468" y="588.3399999999999" as="sourcePoint" />
            <mxPoint x="-428.0000000000002" y="576.0999999999999" as="targetPoint" />
          </mxGeometry>
        </mxCell>
        <mxCell id="-GX_5Cg82I3G_Sg_9txt-13" value="&lt;u&gt;목적지ID&lt;/u&gt;" style="ellipse;whiteSpace=wrap;html=1;container=0;" parent="1" vertex="1">
          <mxGeometry x="-500" y="583" width="70" height="30" as="geometry" />
        </mxCell>
        <mxCell id="-GX_5Cg82I3G_Sg_9txt-16" value="즐겨찾기 목적지" style="shape=ext;margin=3;double=1;whiteSpace=wrap;html=1;align=center;" parent="1" vertex="1">
          <mxGeometry x="-420" y="563" width="100" height="40" as="geometry" />
        </mxCell>
        <mxCell id="-GX_5Cg82I3G_Sg_9txt-17" value="경로순서" style="ellipse;whiteSpace=wrap;html=1;" parent="1" vertex="1">
          <mxGeometry x="-167" y="535" width="70" height="30" as="geometry" />
        </mxCell>
        <mxCell id="-GX_5Cg82I3G_Sg_9txt-18" value="" style="endArrow=none;html=1;rounded=0;" parent="1" source="-GX_5Cg82I3G_Sg_9txt-23" target="-GX_5Cg82I3G_Sg_9txt-17" edge="1">
          <mxGeometry relative="1" as="geometry">
            <mxPoint x="-37.720951797141424" y="543.8400000000001" as="sourcePoint" />
            <mxPoint x="152" y="532.84" as="targetPoint" />
          </mxGeometry>
        </mxCell>
        <mxCell id="-GX_5Cg82I3G_Sg_9txt-19" value="경로위치" style="ellipse;whiteSpace=wrap;html=1;container=0;" parent="1" vertex="1">
          <mxGeometry x="-129" y="509.9999999999999" width="70" height="30" as="geometry" />
        </mxCell>
        <mxCell id="-GX_5Cg82I3G_Sg_9txt-20" value="" style="endArrow=none;html=1;rounded=0;" parent="1" source="-GX_5Cg82I3G_Sg_9txt-19" target="-GX_5Cg82I3G_Sg_9txt-23" edge="1">
          <mxGeometry width="50" height="50" relative="1" as="geometry">
            <mxPoint x="22" y="506.84000000000003" as="sourcePoint" />
            <mxPoint x="20.00953516090567" y="543.8400000000001" as="targetPoint" />
          </mxGeometry>
        </mxCell>
        <mxCell id="-GX_5Cg82I3G_Sg_9txt-21" value="" style="endArrow=none;html=1;rounded=0;" parent="1" source="-GX_5Cg82I3G_Sg_9txt-22" target="-GX_5Cg82I3G_Sg_9txt-23" edge="1">
          <mxGeometry relative="1" as="geometry">
            <mxPoint x="-108" y="576.8399999999999" as="sourcePoint" />
            <mxPoint x="-68.00000000000023" y="564.5999999999999" as="targetPoint" />
          </mxGeometry>
        </mxCell>
        <mxCell id="-GX_5Cg82I3G_Sg_9txt-22" value="&lt;u&gt;목적지ID&lt;/u&gt;" style="ellipse;whiteSpace=wrap;html=1;container=0;" parent="1" vertex="1">
          <mxGeometry x="-170" y="573" width="70" height="30" as="geometry" />
        </mxCell>
        <mxCell id="-GX_5Cg82I3G_Sg_9txt-23" value="즐겨찾기 목적지" style="shape=ext;margin=3;double=1;whiteSpace=wrap;html=1;align=center;" parent="1" vertex="1">
          <mxGeometry x="-85" y="557" width="100" height="40" as="geometry" />
        </mxCell>
        <mxCell id="-GX_5Cg82I3G_Sg_9txt-24" value="보유하다" style="shape=rhombus;double=1;perimeter=rhombusPerimeter;whiteSpace=wrap;html=1;align=center;" parent="1" vertex="1">
          <mxGeometry x="-367" y="480" width="89" height="45" as="geometry" />
        </mxCell>
        <mxCell id="-GX_5Cg82I3G_Sg_9txt-29" value="" style="shape=link;html=1;rounded=0;" parent="1" source="-GX_5Cg82I3G_Sg_9txt-16" target="-GX_5Cg82I3G_Sg_9txt-24" edge="1">
          <mxGeometry relative="1" as="geometry">
            <mxPoint x="-380" y="540" as="sourcePoint" />
            <mxPoint x="-220" y="540" as="targetPoint" />
          </mxGeometry>
        </mxCell>
        <mxCell id="-GX_5Cg82I3G_Sg_9txt-30" value="N" style="resizable=0;html=1;whiteSpace=wrap;align=right;verticalAlign=bottom;" parent="-GX_5Cg82I3G_Sg_9txt-29" connectable="0" vertex="1">
          <mxGeometry x="1" relative="1" as="geometry">
            <mxPoint x="-6" y="13" as="offset" />
          </mxGeometry>
        </mxCell>
        <mxCell id="-GX_5Cg82I3G_Sg_9txt-31" value="" style="shape=link;html=1;rounded=0;" parent="1" source="th9OgHV7kQ32fKlyRIKF-23" target="-GX_5Cg82I3G_Sg_9txt-24" edge="1">
          <mxGeometry relative="1" as="geometry">
            <mxPoint x="-380" y="530" as="sourcePoint" />
            <mxPoint x="-220" y="530" as="targetPoint" />
          </mxGeometry>
        </mxCell>
        <mxCell id="-GX_5Cg82I3G_Sg_9txt-32" value="1" style="resizable=0;html=1;whiteSpace=wrap;align=right;verticalAlign=bottom;" parent="-GX_5Cg82I3G_Sg_9txt-31" connectable="0" vertex="1">
          <mxGeometry x="1" relative="1" as="geometry">
            <mxPoint y="-2" as="offset" />
          </mxGeometry>
        </mxCell>
        <mxCell id="-GX_5Cg82I3G_Sg_9txt-33" value="보유하다" style="shape=rhombus;double=1;perimeter=rhombusPerimeter;whiteSpace=wrap;html=1;align=center;" parent="1" vertex="1">
          <mxGeometry x="-39" y="480" width="89" height="45" as="geometry" />
        </mxCell>
        <mxCell id="-GX_5Cg82I3G_Sg_9txt-34" value="" style="shape=link;html=1;rounded=0;" parent="1" source="-GX_5Cg82I3G_Sg_9txt-23" target="-GX_5Cg82I3G_Sg_9txt-33" edge="1">
          <mxGeometry relative="1" as="geometry">
            <mxPoint x="-20.5" y="563.34" as="sourcePoint" />
            <mxPoint x="117.5" y="540.34" as="targetPoint" />
          </mxGeometry>
        </mxCell>
        <mxCell id="-GX_5Cg82I3G_Sg_9txt-35" value="N" style="resizable=0;html=1;whiteSpace=wrap;align=right;verticalAlign=bottom;" parent="-GX_5Cg82I3G_Sg_9txt-34" connectable="0" vertex="1">
          <mxGeometry x="1" relative="1" as="geometry">
            <mxPoint x="-6" y="13" as="offset" />
          </mxGeometry>
        </mxCell>
        <mxCell id="-GX_5Cg82I3G_Sg_9txt-36" value="" style="shape=link;html=1;rounded=0;" parent="1" source="th9OgHV7kQ32fKlyRIKF-4" target="-GX_5Cg82I3G_Sg_9txt-33" edge="1">
          <mxGeometry relative="1" as="geometry">
            <mxPoint x="52.5" y="445.34" as="sourcePoint" />
            <mxPoint x="117.5" y="530.34" as="targetPoint" />
          </mxGeometry>
        </mxCell>
        <mxCell id="-GX_5Cg82I3G_Sg_9txt-37" value="1" style="resizable=0;html=1;whiteSpace=wrap;align=right;verticalAlign=bottom;" parent="-GX_5Cg82I3G_Sg_9txt-36" connectable="0" vertex="1">
          <mxGeometry x="1" relative="1" as="geometry">
            <mxPoint y="-2" as="offset" />
          </mxGeometry>
        </mxCell>
        <mxCell id="-GX_5Cg82I3G_Sg_9txt-40" value="참고하다" style="shape=rhombus;perimeter=rhombusPerimeter;whiteSpace=wrap;html=1;align=center;" parent="1" vertex="1">
          <mxGeometry x="-417.5" y="720" width="95" height="40" as="geometry" />
        </mxCell>
        <mxCell id="-GX_5Cg82I3G_Sg_9txt-42" value="" style="endArrow=none;html=1;rounded=0;" parent="1" source="-GX_5Cg82I3G_Sg_9txt-16" target="-GX_5Cg82I3G_Sg_9txt-40" edge="1">
          <mxGeometry relative="1" as="geometry">
            <mxPoint x="-370" y="760" as="sourcePoint" />
            <mxPoint x="-210" y="760" as="targetPoint" />
          </mxGeometry>
        </mxCell>
        <mxCell id="-GX_5Cg82I3G_Sg_9txt-43" value="N" style="resizable=0;html=1;whiteSpace=wrap;align=right;verticalAlign=bottom;" parent="-GX_5Cg82I3G_Sg_9txt-42" connectable="0" vertex="1">
          <mxGeometry x="1" relative="1" as="geometry" />
        </mxCell>
        <mxCell id="-GX_5Cg82I3G_Sg_9txt-44" value="" style="endArrow=none;html=1;rounded=0;" parent="1" source="NNnHZDkGo-gfW5Nsurmc-4" target="-GX_5Cg82I3G_Sg_9txt-40" edge="1">
          <mxGeometry relative="1" as="geometry">
            <mxPoint x="-370" y="760" as="sourcePoint" />
            <mxPoint x="-210" y="760" as="targetPoint" />
          </mxGeometry>
        </mxCell>
        <mxCell id="-GX_5Cg82I3G_Sg_9txt-45" value="M" style="resizable=0;html=1;whiteSpace=wrap;align=right;verticalAlign=bottom;" parent="-GX_5Cg82I3G_Sg_9txt-44" connectable="0" vertex="1">
          <mxGeometry x="1" relative="1" as="geometry">
            <mxPoint x="4" y="23" as="offset" />
          </mxGeometry>
        </mxCell>
        <mxCell id="-GX_5Cg82I3G_Sg_9txt-46" value="" style="endArrow=none;html=1;rounded=0;" parent="1" source="NNnHZDkGo-gfW5Nsurmc-4" target="-GX_5Cg82I3G_Sg_9txt-48" edge="1">
          <mxGeometry relative="1" as="geometry">
            <mxPoint x="-110.5" y="884" as="sourcePoint" />
            <mxPoint x="-102.5" y="764" as="targetPoint" />
          </mxGeometry>
        </mxCell>
        <mxCell id="-GX_5Cg82I3G_Sg_9txt-47" value="M" style="resizable=0;html=1;whiteSpace=wrap;align=right;verticalAlign=bottom;" parent="-GX_5Cg82I3G_Sg_9txt-46" connectable="0" vertex="1">
          <mxGeometry x="1" relative="1" as="geometry">
            <mxPoint x="-10" y="15" as="offset" />
          </mxGeometry>
        </mxCell>
        <mxCell id="-GX_5Cg82I3G_Sg_9txt-48" value="참고하다" style="shape=rhombus;perimeter=rhombusPerimeter;whiteSpace=wrap;html=1;align=center;" parent="1" vertex="1">
          <mxGeometry x="-82.5" y="710" width="95" height="40" as="geometry" />
        </mxCell>
        <mxCell id="-GX_5Cg82I3G_Sg_9txt-49" value="" style="endArrow=none;html=1;rounded=0;" parent="1" source="-GX_5Cg82I3G_Sg_9txt-23" target="-GX_5Cg82I3G_Sg_9txt-48" edge="1">
          <mxGeometry relative="1" as="geometry">
            <mxPoint x="-262.5" y="607" as="sourcePoint" />
            <mxPoint x="-102.5" y="764" as="targetPoint" />
          </mxGeometry>
        </mxCell>
        <mxCell id="-GX_5Cg82I3G_Sg_9txt-50" value="N" style="resizable=0;html=1;whiteSpace=wrap;align=right;verticalAlign=bottom;" parent="-GX_5Cg82I3G_Sg_9txt-49" connectable="0" vertex="1">
          <mxGeometry x="1" relative="1" as="geometry" />
        </mxCell>
        <mxCell id="IsEwLHgY3ltL_Cl1Om3V-3" value="발생지역이름" style="ellipse;whiteSpace=wrap;html=1;container=0;" vertex="1" parent="1">
          <mxGeometry x="-1229.08" y="309.99999999999994" width="70" height="30" as="geometry" />
        </mxCell>
        <mxCell id="IsEwLHgY3ltL_Cl1Om3V-5" value="" style="endArrow=none;html=1;rounded=0;" edge="1" parent="1" source="IsEwLHgY3ltL_Cl1Om3V-3" target="9UmY1VL2F1LapKhUl30l-1">
          <mxGeometry relative="1" as="geometry">
            <mxPoint x="-1110" y="310" as="sourcePoint" />
            <mxPoint x="-950" y="310" as="targetPoint" />
          </mxGeometry>
        </mxCell>
      </root>
    </mxGraphModel>
  </diagram>
</mxfile>
